<svg xmlns="http://www.w3.org/2000/svg" xmlns:xlink="http://www.w3.org/1999/xlink" width="500" zoomAndPan="magnify" viewBox="0 0 375 374.999991" height="500" preserveAspectRatio="xMidYMid meet" version="1.0"><defs><clipPath id="80c1aa6931"><path d="M 0 197.800781 L 14 197.800781 L 14 218 L 0 218 Z M 0 197.800781 " clip-rule="nonzero"/></clipPath><clipPath id="79b3013ab7"><path d="M 0 239 L 78 239 L 78 261.550781 L 0 261.550781 Z M 0 239 " clip-rule="nonzero"/></clipPath><clipPath id="d716cc6df8"><path d="M 0 217 L 141.242188 217 L 141.242188 240 L 0 240 Z M 0 217 " clip-rule="nonzero"/></clipPath><clipPath id="50437bc6a5"><path d="M 335 197.800781 L 375 197.800781 L 375 218 L 335 218 Z M 335 197.800781 " clip-rule="nonzero"/></clipPath><clipPath id="bced2627b5"><path d="M 335 239 L 375 239 L 375 261.550781 L 335 261.550781 Z M 335 239 " clip-rule="nonzero"/></clipPath><clipPath id="94d5e026f2"><path d="M 233.625 221 L 312 221 L 312 238 L 233.625 238 Z M 233.625 221 " clip-rule="nonzero"/></clipPath><clipPath id="e876ab8c5b"><path d="M 157 59.660156 L 249 59.660156 L 249 115 L 157 115 Z M 157 59.660156 " clip-rule="nonzero"/></clipPath><clipPath id="0407f3cd7e"><path d="M 159 59.660156 L 247 59.660156 L 247 113 L 159 113 Z M 159 59.660156 " clip-rule="nonzero"/></clipPath><clipPath id="1e8badc1d4"><path d="M 185 59.660156 L 247 59.660156 L 247 106 L 185 106 Z M 185 59.660156 " clip-rule="nonzero"/></clipPath><clipPath id="f0f35a8e94"><path d="M 116 164 L 291.0625 164 L 291.0625 315.410156 L 116 315.410156 Z M 116 164 " clip-rule="nonzero"/></clipPath><clipPath id="7af39242f8"><path d="M 61.5625 220 L 240 220 L 240 308 L 61.5625 308 Z M 61.5625 220 " clip-rule="nonzero"/></clipPath><clipPath id="ba3d41bd7b"><path d="M 61.5625 247 L 91 247 L 91 300 L 61.5625 300 Z M 61.5625 247 " clip-rule="nonzero"/></clipPath><clipPath id="6e0ead5440"><path d="M 61.5625 251 L 89 251 L 89 302 L 61.5625 302 Z M 61.5625 251 " clip-rule="nonzero"/></clipPath><clipPath id="c79896e5ae"><path d="M 61.5625 254 L 93 254 L 93 305 L 61.5625 305 Z M 61.5625 254 " clip-rule="nonzero"/></clipPath><clipPath id="56314f806c"><path d="M 61.5625 258 L 96 258 L 96 308 L 61.5625 308 Z M 61.5625 258 " clip-rule="nonzero"/></clipPath><clipPath id="0af3bc5c10"><path d="M 260 282 L 291.0625 282 L 291.0625 315.410156 L 260 315.410156 Z M 260 282 " clip-rule="nonzero"/></clipPath><clipPath id="9dd0568ca3"><path d="M 257 288 L 291.0625 288 L 291.0625 315.410156 L 257 315.410156 Z M 257 288 " clip-rule="nonzero"/></clipPath><clipPath id="5f324795fc"><path d="M 254 288 L 291.0625 288 L 291.0625 315.410156 L 254 315.410156 Z M 254 288 " clip-rule="nonzero"/></clipPath><clipPath id="0d479f4593"><path d="M 248 287 L 291.0625 287 L 291.0625 315.410156 L 248 315.410156 Z M 248 287 " clip-rule="nonzero"/></clipPath><clipPath id="2a613d0e30"><path d="M 242 287 L 291.0625 287 L 291.0625 315.410156 L 242 315.410156 Z M 242 287 " clip-rule="nonzero"/></clipPath></defs><rect x="-37.5" width="450" fill="#ffffff" y="-37.499999" height="449.999989" fill-opacity="1"/><rect x="-37.5" width="450" fill="#eae2d9" y="-37.499999" height="449.999989" fill-opacity="1"/><path fill="#f9f5f2" d="M 27.050781 210.660156 L 27.070312 210.679688 C 27.089844 210.695312 27.078125 210.6875 27.078125 210.6875 L 27.054688 210.667969 Z M 27.050781 210.660156 " fill-opacity="1" fill-rule="nonzero"/><path fill="#f9f5f2" d="M 27.671875 211.167969 C 28.335938 211.6875 28.972656 212.25 29.664062 212.71875 C 30.359375 213.171875 31.050781 213.625 31.734375 214.078125 C 32.417969 214.527344 33.164062 214.859375 33.867188 215.238281 C 36.730469 216.671875 39.679688 217.648438 42.542969 218.054688 C 48.277344 219.042969 53.492188 217.980469 57.445312 216.460938 C 61.433594 214.90625 64.246094 212.867188 66.058594 211.371094 C 66.972656 210.625 67.601562 209.941406 68.054688 209.527344 C 68.496094 209.09375 68.726562 208.871094 68.726562 208.871094 C 68.726562 208.871094 68.441406 209.015625 67.902344 209.292969 C 67.351562 209.550781 66.585938 210.007812 65.550781 210.464844 C 63.492188 211.382812 60.453125 212.5625 56.652344 213.183594 C 52.867188 213.773438 48.292969 213.871094 43.589844 212.449219 C 41.234375 211.824219 38.871094 210.773438 36.570312 209.433594 C 36.007812 209.074219 35.40625 208.785156 34.851562 208.378906 C 34.292969 207.984375 33.734375 207.585938 33.171875 207.179688 C 32.609375 206.773438 32.09375 206.285156 31.546875 205.839844 L 31.140625 205.5 L 30.792969 205.214844 L 30.355469 204.789062 L 28.652344 203.117188 C 27.613281 202.101562 26.582031 201.09375 25.722656 200.253906 C 24.9375 201.6875 24.15625 203.109375 23.386719 204.523438 C 23.007812 205.25 22.582031 205.90625 22.167969 206.480469 C 21.9375 206.828125 21.773438 207.035156 21.566406 207.308594 C 20.773438 208.351562 19.90625 209.332031 18.972656 210.246094 C 17.117188 212.082031 15.0625 213.6875 13.027344 215.148438 C 12.003906 215.878906 10.980469 216.578125 9.980469 217.253906 C 9.050781 217.863281 8.136719 218.425781 7.183594 218.878906 C 5.300781 219.816406 3.390625 220.417969 1.601562 220.855469 C -1.984375 221.71875 -5.074219 221.898438 -7.199219 222.007812 C -9.324219 222.089844 -10.519531 222.089844 -10.519531 222.089844 C -10.519531 222.089844 -9.394531 222.488281 -7.28125 223.011719 C -5.167969 223.503906 -2.058594 224.160156 1.960938 224.082031 C 3.964844 224.027344 6.207031 223.789062 8.570312 223.09375 C 9.753906 222.761719 10.96875 222.273438 12.179688 221.703125 C 13.296875 221.167969 14.453125 220.585938 15.632812 219.949219 C 17.984375 218.664062 20.449219 217.125 22.824219 215.09375 C 24.015625 214.085938 25.171875 212.929688 26.25 211.628906 C 26.515625 211.324219 26.820312 210.945312 27.023438 210.660156 C 27.035156 210.644531 27.035156 210.644531 27.042969 210.644531 L 26.988281 210.605469 L 27.042969 210.644531 C 27.050781 210.644531 27.050781 210.644531 27.054688 210.644531 C 27.070312 210.652344 27.070312 210.660156 27.070312 210.667969 L 27.070312 210.671875 L 27.171875 210.753906 Z M 27.671875 211.167969 " fill-opacity="1" fill-rule="nonzero"/><g clip-path="url(#80c1aa6931)"><path fill="#f9f5f2" d="M 6.527344 211.1875 C 5.761719 211.351562 4.949219 211.527344 4.089844 211.714844 C 3.234375 211.914062 2.292969 211.972656 1.339844 212.128906 C -2.507812 212.609375 -7.105469 212.691406 -12.074219 211.992188 C -12.699219 211.898438 -13.328125 211.839844 -13.957031 211.722656 C -14.585938 211.585938 -15.21875 211.457031 -15.859375 211.324219 C -17.148438 211.105469 -18.421875 210.6875 -19.726562 210.339844 C -21.035156 209.988281 -22.300781 209.449219 -23.621094 209.015625 C -24.257812 208.738281 -24.894531 208.453125 -25.535156 208.167969 L -26.503906 207.746094 L -27.4375 207.246094 C -29.28125 206.320312 -30.941406 205.261719 -32.546875 204.085938 C -32.9375 203.773438 -33.332031 203.460938 -33.714844 203.15625 C -34.144531 202.796875 -34.332031 202.742188 -35.191406 201.84375 C -36.601562 200.433594 -37.976562 199.039062 -39.234375 197.820312 C -39.84375 198.890625 -40.445312 199.953125 -41.042969 201.003906 C -41.597656 201.851562 -42.148438 202.691406 -42.6875 203.515625 C -42.761719 203.644531 -42.804688 203.679688 -42.84375 203.710938 L -42.964844 203.835938 L -43.210938 204.078125 L -43.691406 204.574219 C -44.003906 204.910156 -44.410156 205.15625 -44.761719 205.460938 C -46.257812 206.554688 -47.902344 207.484375 -49.59375 208.09375 C -52.945312 209.425781 -56.238281 209.929688 -58.953125 210.179688 C -61.683594 210.390625 -63.917969 210.328125 -65.417969 210.109375 C -66.191406 210.058594 -66.761719 209.902344 -67.160156 209.847656 C -67.558594 209.78125 -67.769531 209.738281 -67.769531 209.738281 C -67.769531 209.738281 -67.578125 209.839844 -67.222656 210.03125 C -66.855469 210.207031 -66.328125 210.542969 -65.589844 210.820312 C -64.140625 211.484375 -61.925781 212.191406 -59.035156 212.65625 C -56.148438 213.078125 -52.566406 213.320312 -48.492188 212.46875 C -46.453125 212.09375 -44.292969 211.328125 -42.121094 210.125 C -41.589844 209.785156 -41.023438 209.507812 -40.5 209.089844 C -40 208.675781 -39.492188 208.261719 -38.976562 207.84375 L -38.484375 207.382812 C -38.414062 207.335938 -38.394531 207.335938 -38.363281 207.320312 C -38.300781 207.410156 -38.261719 207.539062 -38.238281 207.597656 C -38.410156 207.484375 -37.765625 208.039062 -37.398438 208.363281 C -36.980469 208.730469 -36.558594 209.101562 -36.132812 209.476562 C -34.367188 210.910156 -32.316406 212.277344 -30.175781 213.355469 L -29.070312 213.9375 L -27.941406 214.410156 C -27.183594 214.722656 -26.4375 215.027344 -25.691406 215.332031 C -24.167969 215.792969 -22.671875 216.328125 -21.175781 216.640625 C -19.671875 216.9375 -18.203125 217.289062 -16.742188 217.402344 C -16.015625 217.476562 -15.292969 217.558594 -14.582031 217.632812 C -13.871094 217.679688 -13.160156 217.675781 -12.46875 217.695312 C -6.894531 217.804688 -1.9375 216.800781 2.007812 215.433594 C 2.992188 215.0625 3.9375 214.777344 4.792969 214.363281 C 5.636719 213.957031 6.4375 213.570312 7.1875 213.210938 C 8.660156 212.433594 9.851562 211.613281 10.832031 211.011719 C 12.695312 209.570312 13.667969 208.757812 13.667969 208.757812 C 13.667969 208.757812 12.503906 209.21875 10.40625 210.058594 C 9.328125 210.355469 8.042969 210.816406 6.527344 211.1875 Z M 6.527344 211.1875 " fill-opacity="1" fill-rule="nonzero"/></g><g clip-path="url(#79b3013ab7)"><path fill="#f9f5f2" d="M -65.109375 254.699219 C -64.457031 255.105469 -63.742188 255.675781 -62.839844 256.121094 C -59.339844 258.140625 -53.746094 259.921875 -46.71875 260.765625 C -39.683594 261.613281 -31.203125 261.574219 -21.914062 260.105469 C -17.277344 259.351562 -12.433594 258.222656 -7.496094 256.570312 C -2.582031 254.863281 2.449219 252.664062 7.230469 249.269531 L 8.929688 247.96875 L 10.011719 248.800781 C 12.382812 250.375 14.792969 251.769531 17.257812 252.796875 C 17.867188 253.0625 18.46875 253.375 19.085938 253.597656 C 19.703125 253.8125 20.320312 254.023438 20.933594 254.238281 C 22.160156 254.644531 23.367188 255.125 24.589844 255.390625 C 25.808594 255.695312 27.015625 256 28.199219 256.296875 C 29.398438 256.507812 30.589844 256.710938 31.761719 256.921875 C 32.933594 257.152344 34.089844 257.265625 35.242188 257.375 C 36.394531 257.476562 37.519531 257.625 38.636719 257.679688 C 40.871094 257.726562 43.03125 257.894531 45.121094 257.761719 C 46.164062 257.71875 47.195312 257.6875 48.195312 257.644531 C 49.199219 257.570312 50.1875 257.457031 51.148438 257.363281 C 53.078125 257.210938 54.914062 256.875 56.660156 256.570312 C 63.648438 255.308594 69.070312 253.148438 72.574219 251.246094 C 73.445312 250.753906 74.230469 250.367188 74.875 249.941406 C 75.503906 249.492188 76.039062 249.113281 76.464844 248.808594 C 77.320312 248.199219 77.765625 247.875 77.765625 247.875 C 77.765625 247.875 77.273438 248.113281 76.335938 248.550781 C 75.871094 248.777344 75.300781 249.046875 74.625 249.378906 C 73.941406 249.683594 73.109375 249.925781 72.199219 250.265625 C 68.550781 251.539062 63.105469 252.8125 56.300781 253.195312 C 54.601562 253.277344 52.828125 253.398438 50.972656 253.339844 C 50.042969 253.332031 49.105469 253.320312 48.140625 253.3125 C 47.179688 253.25 46.207031 253.183594 45.210938 253.121094 C 43.21875 253.0625 41.1875 252.703125 39.089844 252.484375 C 38.046875 252.34375 36.988281 252.121094 35.917969 251.9375 C 34.851562 251.753906 33.765625 251.570312 32.695312 251.28125 C 31.621094 251.023438 30.53125 250.757812 29.425781 250.488281 C 28.347656 250.148438 27.253906 249.804688 26.15625 249.460938 C 25.039062 249.15625 23.980469 248.667969 22.886719 248.246094 C 22.34375 248.03125 21.792969 247.8125 21.246094 247.597656 C 20.699219 247.375 20.191406 247.074219 19.65625 246.824219 C 17.496094 245.835938 15.457031 244.5625 13.472656 243.210938 C 12.796875 242.667969 12.113281 242.132812 11.429688 241.585938 L 9.871094 240.359375 L 9.085938 239.734375 C 8.957031 239.660156 8.820312 239.472656 8.691406 239.484375 L 8.3125 239.816406 C 7.277344 240.71875 6.234375 241.617188 5.191406 242.519531 L 3.722656 243.636719 C -0.332031 246.519531 -4.898438 248.667969 -9.414062 250.414062 C -13.957031 252.121094 -18.480469 253.449219 -22.855469 254.46875 C -31.609375 256.480469 -39.730469 257.355469 -46.527344 257.375 C -53.324219 257.386719 -58.84375 256.507812 -62.441406 255.140625 C -63.359375 254.855469 -64.113281 254.429688 -64.804688 254.144531 C -65.453125 253.78125 -66.015625 253.476562 -66.449219 253.195312 C -67.296875 252.585938 -67.734375 252.261719 -67.734375 252.261719 C -67.734375 252.261719 -67.347656 252.664062 -66.605469 253.433594 C -66.230469 253.800781 -65.71875 254.207031 -65.109375 254.699219 Z M 8.914062 247.976562 C 8.914062 247.976562 8.914062 247.96875 8.929688 247.976562 C 8.914062 247.988281 8.910156 247.988281 8.914062 247.984375 Z M 8.914062 247.976562 " fill-opacity="1" fill-rule="nonzero"/></g><g clip-path="url(#d716cc6df8)"><path fill="#f9f5f2" d="M 106.632812 231.683594 C 99.734375 231.347656 92.175781 230.4375 84.46875 228.628906 C 80.617188 227.722656 76.921875 226.625 73.445312 225.320312 C 72.585938 224.972656 71.734375 224.636719 70.886719 224.296875 C 70.0625 223.917969 69.242188 223.550781 68.429688 223.179688 C 68.03125 222.976562 67.636719 222.78125 67.242188 222.585938 L 66.582031 222.246094 C 66.148438 222.015625 65.816406 221.796875 65.429688 221.574219 C 64.691406 221.140625 63.960938 220.707031 63.234375 220.273438 L 62.160156 219.644531 C 61.949219 219.410156 61.882812 219.753906 61.773438 219.917969 L 61.460938 220.492188 C 61.054688 221.257812 60.648438 222.007812 60.242188 222.761719 C 60.039062 223.132812 59.851562 223.539062 59.625 223.90625 L 59.308594 224.386719 L 59.152344 224.636719 C 58.78125 225.328125 58.25 225.902344 57.796875 226.53125 C 57.308594 227.128906 56.761719 227.667969 56.253906 228.222656 C 55.914062 228.507812 55.589844 228.8125 55.265625 229.105469 C 54.40625 228.554688 53.320312 227.886719 51.988281 227.121094 C 50.132812 226.070312 47.808594 224.824219 44.890625 223.835938 C 42 222.855469 38.359375 222.183594 34.394531 222.867188 C 30.441406 223.472656 26.425781 225.226562 22.425781 227.214844 C 18.414062 229.179688 14.304688 231.453125 9.957031 232.542969 C 5.652344 233.648438 0.863281 233.425781 -3.734375 231.894531 C -6.035156 231.128906 -8.285156 230.027344 -10.390625 228.597656 C -11.433594 227.871094 -12.460938 227.101562 -13.429688 226.234375 C -13.9375 225.835938 -14.378906 225.339844 -14.851562 224.886719 C -15.082031 224.648438 -15.332031 224.4375 -15.542969 224.183594 L -16.382812 223.21875 C -18.007812 221.230469 -19.511719 219.125 -20.796875 217.464844 C -21.644531 218.703125 -22.496094 219.941406 -23.335938 221.175781 C -23.769531 221.777344 -24.1875 222.449219 -24.636719 222.992188 C -24.820312 223.242188 -25.203125 223.632812 -25.230469 223.675781 L -25.535156 224.011719 C -26.375 224.898438 -27.277344 225.746094 -28.238281 226.496094 C -30.15625 228.007812 -32.238281 229.273438 -34.386719 230.160156 C -36.535156 231.054688 -38.734375 231.625 -40.867188 231.78125 C -41.929688 231.867188 -42.972656 231.8125 -44.023438 231.699219 C -44.5625 231.609375 -45.097656 231.523438 -45.632812 231.433594 C -46.183594 231.3125 -46.722656 231.183594 -47.257812 231.0625 C -56.027344 228.765625 -64.058594 224.683594 -71.796875 224.519531 C -72.800781 224.507812 -73.632812 224.574219 -74.492188 224.640625 C -75.347656 224.703125 -76.199219 224.785156 -77.027344 224.898438 C -78.679688 225.125 -80.25 225.507812 -81.644531 226.058594 C -84.453125 227.148438 -86.503906 228.78125 -88.027344 230.175781 C -89.546875 231.601562 -90.589844 232.835938 -91.265625 233.683594 C -91.9375 234.542969 -92.289062 234.988281 -92.289062 234.988281 C -92.289062 234.988281 -91.875 234.601562 -91.082031 233.878906 C -90.289062 233.160156 -89.097656 232.117188 -87.460938 230.980469 C -85.820312 229.863281 -83.707031 228.636719 -81.09375 228.019531 C -79.796875 227.703125 -78.375 227.539062 -76.84375 227.527344 C -76.078125 227.511719 -75.277344 227.539062 -74.445312 227.582031 C -73.621094 227.613281 -72.71875 227.65625 -71.945312 227.765625 C -68.703125 228.15625 -65.113281 229.570312 -61.289062 231.203125 C -57.4375 232.835938 -53.351562 234.839844 -48.601562 236.425781 C -47.992188 236.605469 -47.382812 236.789062 -46.765625 236.972656 C -46.121094 237.121094 -45.476562 237.269531 -44.828125 237.421875 C -43.472656 237.65625 -42.070312 237.8125 -40.65625 237.773438 C -37.839844 237.726562 -35.03125 237.128906 -32.335938 236.125 C -29.632812 235.125 -27.054688 233.675781 -24.628906 231.859375 C -23.410156 230.953125 -22.257812 229.917969 -21.15625 228.785156 L -20.75 228.347656 C -20.539062 228.121094 -20.679688 228.273438 -20.640625 228.230469 L -20.632812 228.230469 L -20.628906 228.238281 C -20.628906 228.25 -20.632812 228.246094 -20.621094 228.257812 L -20.003906 228.960938 C -19.742188 229.265625 -19.4375 229.539062 -19.15625 229.824219 C -18.582031 230.378906 -18.027344 230.96875 -17.410156 231.453125 C -16.21875 232.503906 -14.953125 233.429688 -13.660156 234.292969 C -11.066406 235.992188 -8.285156 237.265625 -5.445312 238.105469 C 0.226562 239.78125 6.140625 239.75 11.332031 238.054688 C 16.511719 236.363281 20.601562 233.585938 24.382812 231.324219 C 28.140625 229.015625 31.621094 227.085938 35 226.171875 C 38.351562 225.191406 41.582031 225.351562 44.40625 225.902344 C 47.226562 226.449219 49.632812 227.324219 51.582031 228.070312 C 52.890625 228.582031 53.980469 229.035156 54.871094 229.421875 C 54.769531 229.511719 54.667969 229.605469 54.566406 229.6875 C 52.257812 231.527344 49.761719 232.820312 47.371094 233.6875 C 44.964844 234.527344 42.671875 234.90625 40.621094 235.097656 C 38.574219 235.183594 36.78125 235.097656 35.316406 234.867188 C 34.585938 234.738281 33.9375 234.625 33.375 234.523438 C 32.820312 234.367188 32.351562 234.238281 31.972656 234.128906 C 31.207031 233.914062 30.800781 233.804688 30.800781 233.804688 C 30.800781 233.804688 31.171875 234.007812 31.871094 234.398438 C 32.230469 234.597656 32.667969 234.832031 33.191406 235.117188 C 33.738281 235.339844 34.371094 235.605469 35.082031 235.894531 C 36.523438 236.445312 38.359375 236.925781 40.558594 237.238281 C 42.757812 237.445312 45.3125 237.480469 48.121094 236.972656 C 50.910156 236.429688 53.9375 235.386719 56.910156 233.566406 C 57.65625 233.121094 58.375 232.566406 59.117188 232.042969 C 59.816406 231.441406 60.554688 230.851562 61.238281 230.167969 C 61.894531 229.449219 62.621094 228.773438 63.207031 227.917969 L 63.4375 227.609375 C 63.527344 227.488281 63.480469 227.5625 63.507812 227.535156 L 63.585938 227.460938 L 63.730469 227.316406 C 63.761719 227.234375 63.824219 227.308594 63.886719 227.371094 L 64.035156 227.527344 C 64.046875 227.546875 64.101562 227.589844 64.074219 227.582031 L 64.628906 227.914062 C 65.050781 228.164062 65.476562 228.414062 65.902344 228.671875 C 66.761719 229.152344 67.648438 229.605469 68.542969 230.074219 C 69.453125 230.492188 70.367188 230.917969 71.292969 231.347656 C 75.015625 232.957031 78.992188 234.25 83.109375 235.21875 C 91.351562 237.148438 99.375 237.664062 106.605469 237.371094 C 113.84375 237.074219 120.316406 235.949219 125.597656 234.398438 C 130.886719 232.871094 134.976562 230.90625 137.578125 229.191406 C 138.234375 228.773438 138.804688 228.386719 139.269531 228 C 139.746094 227.636719 140.152344 227.332031 140.449219 227.046875 C 141.050781 226.492188 141.371094 226.199219 141.371094 226.199219 C 141.371094 226.199219 141.003906 226.410156 140.300781 226.800781 C 139.960938 227.011719 139.507812 227.214844 138.984375 227.460938 C 138.472656 227.722656 137.847656 227.96875 137.152344 228.238281 C 134.375 229.335938 130.210938 230.425781 124.996094 231.074219 C 119.796875 231.78125 113.539062 232.023438 106.632812 231.683594 Z M 106.632812 231.683594 " fill-opacity="1" fill-rule="nonzero"/></g><path fill="#f9f5f2" d="M 92.941406 212.371094 C 91.375 211.65625 89.949219 210.816406 88.65625 209.929688 C 88.300781 209.730469 88.046875 209.460938 87.746094 209.230469 L 87.3125 208.878906 L 86.832031 208.472656 C 86.664062 208.308594 86.527344 208.132812 86.378906 207.972656 C 85.253906 206.699219 84.164062 205.453125 83.101562 204.242188 C 82.585938 204.957031 82.074219 205.664062 81.566406 206.367188 L 80.808594 207.410156 L 80.433594 207.917969 L 80.097656 208.316406 L 79.433594 209.109375 L 79.105469 209.496094 L 78.925781 209.703125 C 78.675781 209.976562 78.4375 210.261719 78.1875 210.523438 C 77.191406 211.59375 76.128906 212.515625 75.09375 213.347656 C 73 214.992188 70.925781 216.164062 69.097656 216.910156 C 67.269531 217.679688 65.699219 217.980469 64.609375 218.214844 C 63.5 218.367188 62.898438 218.445312 62.898438 218.445312 C 62.898438 218.445312 63.492188 218.609375 64.589844 218.921875 C 65.707031 219.117188 67.398438 219.421875 69.558594 219.230469 C 71.71875 219.078125 74.332031 218.46875 77.101562 217.152344 C 78.476562 216.488281 79.914062 215.683594 81.300781 214.632812 C 81.652344 214.382812 81.992188 214.09375 82.34375 213.808594 L 82.609375 213.589844 L 82.710938 213.523438 L 82.90625 213.386719 C 83.070312 213.265625 83.046875 213.320312 83.117188 213.285156 C 83.164062 213.28125 83.195312 213.273438 83.222656 213.273438 C 83.285156 213.414062 83.3125 213.539062 83.332031 213.613281 C 83.332031 213.617188 83.347656 213.632812 83.332031 213.632812 C 83.320312 213.632812 83.304688 213.625 83.292969 213.617188 L 83.277344 213.605469 L 83.347656 213.671875 L 83.90625 214.222656 C 84.289062 214.582031 84.660156 214.988281 85.078125 215.269531 C 86.710938 216.570312 88.511719 217.695312 90.410156 218.574219 C 95.101562 220.734375 99.835938 221.5625 104.101562 221.664062 C 108.371094 221.757812 112.191406 221.085938 115.265625 220.105469 C 118.355469 219.183594 120.636719 217.761719 122.117188 216.789062 C 123.554688 215.648438 124.273438 215 124.273438 215 C 124.273438 215 123.363281 215.292969 121.71875 215.820312 C 120.046875 216.183594 117.695312 216.726562 114.738281 216.761719 C 111.804688 216.855469 108.332031 216.644531 104.582031 215.960938 C 100.835938 215.292969 96.792969 214.148438 92.941406 212.371094 Z M 92.941406 212.371094 " fill-opacity="1" fill-rule="nonzero"/><path fill="#f9f5f2" d="M 327.746094 208.84375 C 327.582031 208.769531 327.398438 208.582031 327.25 208.59375 L 326.886719 209.019531 L 326.152344 209.875 L 324.703125 211.574219 L 323.988281 212.421875 C 323.785156 212.652344 323.714844 212.683594 323.574219 212.828125 L 322.835938 213.523438 L 322.105469 214.222656 L 321.296875 214.832031 C 320.269531 215.699219 319.089844 216.339844 317.988281 217.050781 C 316.800781 217.621094 315.671875 218.285156 314.464844 218.71875 C 309.734375 220.703125 305.011719 221.464844 301.050781 221.664062 C 297.070312 221.859375 293.8125 221.371094 291.613281 220.769531 C 291.066406 220.605469 290.5625 220.476562 290.144531 220.335938 C 289.730469 220.160156 289.386719 220.019531 289.101562 219.894531 C 288.527344 219.660156 288.226562 219.53125 288.226562 219.53125 C 288.226562 219.53125 288.484375 219.738281 288.964844 220.144531 C 289.214844 220.347656 289.519531 220.601562 289.886719 220.890625 C 290.265625 221.15625 290.726562 221.425781 291.242188 221.746094 C 293.3125 222.984375 296.597656 224.371094 300.871094 225.042969 C 305.128906 225.707031 310.398438 225.792969 316.085938 224.160156 C 317.519531 223.816406 318.933594 223.199219 320.398438 222.632812 C 321.8125 221.90625 323.289062 221.214844 324.675781 220.207031 L 325.742188 219.488281 C 326.078125 219.21875 326.410156 218.925781 326.75 218.636719 C 327.25 218.195312 327.757812 217.75 328.273438 217.300781 L 328.476562 217.105469 C 328.484375 217.105469 328.484375 217.105469 328.484375 217.105469 C 328.476562 217.105469 328.484375 217.105469 328.476562 217.105469 L 328.484375 217.097656 L 328.484375 217.105469 L 328.617188 217.1875 C 334.332031 220.621094 340.238281 222.96875 345.742188 224.363281 C 351.269531 225.765625 356.292969 226.289062 360.605469 226.246094 C 362.765625 226.199219 364.738281 225.941406 366.421875 225.480469 C 368.109375 225.023438 369.484375 224.386719 370.527344 223.734375 C 371.574219 223.097656 372.28125 222.449219 372.742188 222 C 373.179688 221.535156 373.410156 221.289062 373.410156 221.289062 C 373.410156 221.289062 373.125 221.453125 372.585938 221.765625 C 372.035156 222.050781 371.230469 222.449219 370.140625 222.761719 C 367.972656 223.4375 364.742188 223.632812 360.828125 222.867188 C 352.921875 221.3125 342.234375 217.65625 331.699219 211.277344 C 330.359375 210.464844 329.046875 209.652344 327.746094 208.84375 Z M 327.746094 208.84375 " fill-opacity="1" fill-rule="nonzero"/><g clip-path="url(#50437bc6a5)"><path fill="#f9f5f2" d="M 410.160156 211.1875 C 409.394531 211.351562 408.582031 211.527344 407.722656 211.714844 C 406.867188 211.914062 405.925781 211.972656 404.972656 212.128906 C 401.125 212.609375 396.527344 212.691406 391.558594 211.992188 C 390.933594 211.898438 390.304688 211.839844 389.675781 211.722656 C 389.046875 211.585938 388.414062 211.457031 387.773438 211.324219 C 386.484375 211.105469 385.214844 210.6875 383.90625 210.339844 C 382.597656 209.988281 381.332031 209.449219 380.011719 209.015625 C 379.375 208.738281 378.738281 208.453125 378.097656 208.167969 L 377.128906 207.746094 L 376.195312 207.246094 C 374.351562 206.320312 372.691406 205.261719 371.089844 204.085938 C 370.695312 203.773438 370.300781 203.460938 369.917969 203.15625 C 369.488281 202.796875 369.300781 202.742188 368.441406 201.84375 C 367.03125 200.433594 365.65625 199.039062 364.398438 197.820312 C 363.789062 198.890625 363.1875 199.953125 362.589844 201.003906 C 362.035156 201.851562 361.488281 202.691406 360.945312 203.515625 C 360.871094 203.644531 360.828125 203.679688 360.789062 203.710938 L 360.667969 203.835938 L 360.421875 204.078125 L 359.941406 204.574219 C 359.632812 204.910156 359.226562 205.15625 358.871094 205.460938 C 357.375 206.554688 355.730469 207.484375 354.039062 208.09375 C 350.6875 209.425781 347.394531 209.929688 344.679688 210.179688 C 341.949219 210.390625 339.714844 210.328125 338.214844 210.109375 C 337.441406 210.058594 336.871094 209.902344 336.472656 209.847656 C 336.074219 209.78125 335.863281 209.738281 335.863281 209.738281 C 335.863281 209.738281 336.054688 209.839844 336.414062 210.03125 C 336.777344 210.207031 337.304688 210.542969 338.042969 210.820312 C 339.492188 211.484375 341.707031 212.191406 344.597656 212.65625 C 347.484375 213.078125 351.066406 213.320312 355.140625 212.46875 C 357.179688 212.09375 359.339844 211.328125 361.511719 210.125 C 362.042969 209.785156 362.609375 209.507812 363.132812 209.089844 C 363.632812 208.675781 364.140625 208.261719 364.65625 207.84375 L 365.148438 207.382812 C 365.21875 207.335938 365.238281 207.335938 365.273438 207.320312 C 365.332031 207.410156 365.375 207.539062 365.394531 207.597656 C 365.222656 207.484375 365.867188 208.039062 366.234375 208.363281 C 366.652344 208.730469 367.074219 209.101562 367.5 209.476562 C 369.265625 210.910156 371.316406 212.277344 373.457031 213.355469 L 374.5625 213.9375 L 375.691406 214.410156 C 376.449219 214.722656 377.195312 215.027344 377.941406 215.332031 C 379.464844 215.792969 380.960938 216.328125 382.457031 216.640625 C 383.960938 216.9375 385.429688 217.289062 386.890625 217.402344 C 387.617188 217.476562 388.339844 217.558594 389.050781 217.632812 C 389.761719 217.679688 390.472656 217.675781 391.164062 217.695312 C 396.738281 217.804688 401.695312 216.800781 405.640625 215.433594 C 406.625 215.0625 407.570312 214.777344 408.425781 214.363281 C 409.269531 213.957031 410.070312 213.570312 410.820312 213.210938 C 412.292969 212.433594 413.484375 211.613281 414.464844 211.011719 C 416.328125 209.570312 417.300781 208.757812 417.300781 208.757812 C 417.300781 208.757812 416.136719 209.21875 414.039062 210.058594 C 412.960938 210.355469 411.675781 210.816406 410.160156 211.1875 Z M 410.160156 211.1875 " fill-opacity="1" fill-rule="nonzero"/></g><path fill="#f9f5f2" d="M 323.058594 249.488281 C 326.410156 248.824219 329.871094 247.644531 333.238281 245.851562 C 334.054688 245.363281 334.882812 244.863281 335.722656 244.367188 C 336.539062 243.839844 337.3125 243.210938 338.113281 242.621094 C 338.863281 242.113281 339.945312 241.0625 339.691406 241.3125 C 339.714844 241.292969 339.695312 241.3125 339.703125 241.308594 L 339.941406 241.488281 L 340.222656 241.707031 C 340.292969 241.753906 340.277344 241.753906 340.40625 241.835938 L 341.035156 242.234375 C 341.875 242.761719 342.710938 243.304688 343.550781 243.792969 C 344.410156 244.230469 345.253906 244.671875 346.101562 245.113281 C 346.941406 245.550781 347.820312 245.863281 348.667969 246.234375 C 352.085938 247.632812 355.480469 248.585938 358.757812 249.160156 C 362.019531 249.804688 365.171875 249.980469 368.09375 250.0625 C 369.566406 250.015625 370.972656 250.015625 372.328125 249.894531 C 373.679688 249.730469 374.976562 249.667969 376.199219 249.425781 C 381.109375 248.613281 384.929688 247.226562 387.386719 245.910156 C 388.652344 245.355469 389.53125 244.679688 390.15625 244.328125 C 390.765625 243.941406 391.089844 243.730469 391.089844 243.730469 C 391.089844 243.730469 390.730469 243.847656 390.046875 244.054688 C 389.355469 244.246094 388.394531 244.664062 387.070312 244.910156 C 384.488281 245.601562 380.648438 246.101562 375.976562 246.046875 C 374.8125 246.082031 373.578125 245.925781 372.320312 245.878906 C 371.054688 245.789062 369.742188 245.585938 368.386719 245.445312 C 365.683594 244.984375 362.820312 244.476562 359.886719 243.574219 C 356.941406 242.753906 353.929688 241.636719 350.949219 240.238281 C 350.210938 239.863281 349.441406 239.554688 348.714844 239.132812 C 347.992188 238.726562 347.253906 238.3125 346.515625 237.902344 C 345.796875 237.453125 345.101562 236.972656 344.382812 236.511719 L 343.847656 236.167969 L 342.914062 235.457031 C 342.261719 234.960938 341.621094 234.460938 340.96875 233.960938 L 339.996094 233.214844 L 339.507812 232.84375 L 339.386719 232.746094 L 339.324219 232.699219 C 339.304688 232.707031 339.285156 232.742188 339.257812 232.753906 L 339 233 C 338.316406 233.640625 337.636719 234.277344 336.960938 234.914062 C 335.328125 236.429688 335.113281 236.714844 334.367188 237.265625 C 333.703125 237.773438 333.082031 238.320312 332.410156 238.792969 C 331.726562 239.25 331.050781 239.695312 330.378906 240.140625 C 327.617188 241.792969 324.757812 243.039062 321.914062 243.90625 C 316.207031 245.484375 310.675781 245.632812 306.144531 244.765625 C 301.601562 243.933594 297.992188 242.449219 295.636719 241.125 C 295.019531 240.839844 294.503906 240.519531 294.0625 240.230469 C 293.617188 239.953125 293.238281 239.714844 292.933594 239.519531 C 292.316406 239.140625 291.992188 238.9375 291.992188 238.9375 C 291.992188 238.9375 292.261719 239.214844 292.769531 239.75 C 293.027344 240.011719 293.347656 240.34375 293.726562 240.738281 C 294.097656 241.136719 294.546875 241.585938 295.101562 242.011719 C 295.648438 242.457031 296.25 242.957031 296.914062 243.507812 C 297.605469 244.015625 298.390625 244.507812 299.230469 245.066406 C 300.9375 246.128906 302.980469 247.175781 305.367188 248.042969 C 310.121094 249.839844 316.308594 250.652344 323.058594 249.488281 Z M 323.058594 249.488281 " fill-opacity="1" fill-rule="nonzero"/><g clip-path="url(#bced2627b5)"><path fill="#f9f5f2" d="M 338.523438 254.699219 C 339.175781 255.105469 339.894531 255.675781 340.792969 256.121094 C 344.292969 258.140625 349.886719 259.921875 356.914062 260.765625 C 363.949219 261.613281 372.429688 261.574219 381.71875 260.105469 C 386.355469 259.351562 391.199219 258.222656 396.136719 256.570312 C 401.050781 254.863281 406.082031 252.664062 410.863281 249.269531 L 412.5625 247.96875 L 413.644531 248.800781 C 416.015625 250.375 418.425781 251.769531 420.890625 252.796875 C 421.5 253.0625 422.101562 253.375 422.71875 253.597656 C 423.335938 253.8125 423.953125 254.023438 424.566406 254.238281 C 425.792969 254.644531 427 255.125 428.222656 255.390625 C 429.441406 255.695312 430.648438 256 431.832031 256.296875 C 433.03125 256.507812 434.222656 256.710938 435.394531 256.921875 C 436.566406 257.152344 437.726562 257.265625 438.875 257.375 C 440.027344 257.476562 441.152344 257.625 442.269531 257.679688 C 444.503906 257.726562 446.664062 257.894531 448.753906 257.761719 C 449.796875 257.71875 450.828125 257.6875 451.828125 257.644531 C 452.832031 257.570312 453.820312 257.457031 454.78125 257.363281 C 456.710938 257.210938 458.546875 256.875 460.292969 256.570312 C 467.28125 255.308594 472.707031 253.148438 476.207031 251.246094 C 477.078125 250.753906 477.863281 250.367188 478.507812 249.941406 C 479.136719 249.492188 479.671875 249.113281 480.097656 248.808594 C 480.953125 248.199219 481.398438 247.875 481.398438 247.875 C 481.398438 247.875 480.90625 248.113281 479.972656 248.550781 C 479.503906 248.777344 478.933594 249.046875 478.257812 249.378906 C 477.574219 249.683594 476.742188 249.925781 475.832031 250.265625 C 472.183594 251.539062 466.738281 252.8125 459.933594 253.195312 C 458.234375 253.277344 456.460938 253.398438 454.605469 253.339844 C 453.679688 253.332031 452.738281 253.320312 451.773438 253.3125 C 450.8125 253.25 449.839844 253.183594 448.84375 253.121094 C 446.851562 253.0625 444.820312 252.703125 442.722656 252.484375 C 441.679688 252.34375 440.621094 252.121094 439.554688 251.9375 C 438.484375 251.753906 437.398438 251.570312 436.328125 251.28125 C 435.253906 251.023438 434.164062 250.757812 433.058594 250.488281 C 431.984375 250.148438 430.886719 249.804688 429.789062 249.460938 C 428.671875 249.15625 427.613281 248.667969 426.519531 248.246094 C 425.976562 248.03125 425.429688 247.8125 424.878906 247.597656 C 424.332031 247.375 423.824219 247.074219 423.289062 246.824219 C 421.128906 245.835938 419.089844 244.5625 417.105469 243.210938 C 416.429688 242.667969 415.746094 242.132812 415.0625 241.585938 L 413.503906 240.359375 L 412.71875 239.734375 C 412.589844 239.660156 412.453125 239.472656 412.324219 239.484375 L 411.945312 239.816406 C 410.910156 240.71875 409.867188 241.617188 408.824219 242.519531 L 407.355469 243.636719 C 403.300781 246.519531 398.734375 248.667969 394.21875 250.414062 C 389.675781 252.121094 385.152344 253.449219 380.777344 254.46875 C 372.023438 256.480469 363.902344 257.355469 357.105469 257.375 C 350.308594 257.386719 344.789062 256.507812 341.191406 255.140625 C 340.273438 254.855469 339.519531 254.429688 338.828125 254.144531 C 338.179688 253.78125 337.617188 253.476562 337.183594 253.195312 C 336.335938 252.585938 335.898438 252.261719 335.898438 252.261719 C 335.898438 252.261719 336.285156 252.664062 337.027344 253.433594 C 337.402344 253.800781 337.914062 254.207031 338.523438 254.699219 Z M 412.550781 247.976562 C 412.550781 247.976562 412.550781 247.96875 412.5625 247.976562 C 412.550781 247.988281 412.542969 247.988281 412.550781 247.984375 Z M 412.550781 247.976562 " fill-opacity="1" fill-rule="nonzero"/></g><path fill="#f9f5f2" d="M 510.265625 231.683594 C 503.367188 231.347656 495.808594 230.4375 488.101562 228.628906 C 484.25 227.722656 480.554688 226.625 477.078125 225.320312 C 476.21875 224.972656 475.367188 224.636719 474.519531 224.296875 C 473.695312 223.917969 472.875 223.550781 472.0625 223.179688 C 471.664062 222.976562 471.269531 222.78125 470.878906 222.585938 L 470.214844 222.246094 C 469.78125 222.015625 469.449219 221.796875 469.0625 221.574219 C 468.324219 221.140625 467.59375 220.707031 466.867188 220.273438 L 465.792969 219.644531 C 465.582031 219.410156 465.515625 219.753906 465.40625 219.917969 L 465.09375 220.492188 C 464.6875 221.257812 464.28125 222.007812 463.875 222.761719 C 463.671875 223.132812 463.484375 223.539062 463.257812 223.90625 L 462.941406 224.386719 L 462.785156 224.636719 C 462.414062 225.328125 461.882812 225.902344 461.429688 226.53125 C 460.945312 227.128906 460.394531 227.667969 459.886719 228.222656 C 459.546875 228.507812 459.222656 228.8125 458.898438 229.105469 C 458.039062 228.554688 456.957031 227.886719 455.621094 227.121094 C 453.765625 226.070312 451.441406 224.824219 448.523438 223.835938 C 445.632812 222.855469 441.992188 222.183594 438.03125 222.867188 C 434.074219 223.472656 430.058594 225.226562 426.058594 227.214844 C 422.050781 229.179688 417.9375 231.453125 413.589844 232.542969 C 409.285156 233.648438 404.496094 233.425781 399.898438 231.894531 C 397.597656 231.128906 395.351562 230.027344 393.242188 228.597656 C 392.199219 227.871094 391.171875 227.101562 390.203125 226.234375 C 389.695312 225.835938 389.253906 225.339844 388.78125 224.886719 C 388.550781 224.648438 388.300781 224.4375 388.089844 224.183594 L 387.25 223.21875 C 385.625 221.230469 384.121094 219.125 382.835938 217.464844 C 381.988281 218.703125 381.136719 219.941406 380.296875 221.175781 C 379.863281 221.777344 379.445312 222.449219 378.996094 222.992188 C 378.8125 223.242188 378.429688 223.632812 378.402344 223.675781 L 378.097656 224.011719 C 377.257812 224.898438 376.355469 225.746094 375.394531 226.496094 C 373.476562 228.007812 371.394531 229.273438 369.246094 230.160156 C 367.101562 231.054688 364.898438 231.625 362.765625 231.78125 C 361.703125 231.867188 360.660156 231.8125 359.609375 231.699219 C 359.070312 231.609375 358.535156 231.523438 358 231.433594 C 357.449219 231.3125 356.910156 231.183594 356.375 231.0625 C 347.605469 228.765625 339.574219 224.683594 331.835938 224.519531 C 330.832031 224.507812 330 224.574219 329.140625 224.640625 C 328.285156 224.703125 327.433594 224.785156 326.605469 224.898438 C 324.957031 225.125 323.382812 225.507812 321.988281 226.058594 C 319.179688 227.148438 317.128906 228.78125 315.605469 230.175781 C 314.085938 231.601562 313.042969 232.835938 312.367188 233.683594 C 311.695312 234.542969 311.34375 234.988281 311.34375 234.988281 C 311.34375 234.988281 311.757812 234.601562 312.550781 233.878906 C 313.34375 233.160156 314.535156 232.117188 316.171875 230.980469 C 317.8125 229.863281 319.925781 228.636719 322.539062 228.019531 C 323.835938 227.703125 325.261719 227.539062 326.789062 227.527344 C 327.554688 227.511719 328.355469 227.539062 329.1875 227.582031 C 330.011719 227.613281 330.914062 227.65625 331.6875 227.765625 C 334.929688 228.15625 338.519531 229.570312 342.34375 231.203125 C 346.195312 232.835938 350.28125 234.839844 355.035156 236.425781 C 355.644531 236.605469 356.253906 236.789062 356.867188 236.972656 C 357.511719 237.121094 358.15625 237.269531 358.804688 237.421875 C 360.160156 237.65625 361.5625 237.8125 362.976562 237.773438 C 365.792969 237.726562 368.601562 237.128906 371.296875 236.125 C 374 235.125 376.578125 233.675781 379.003906 231.859375 C 380.222656 230.953125 381.375 229.917969 382.476562 228.785156 L 382.882812 228.347656 C 383.09375 228.121094 382.953125 228.273438 382.992188 228.230469 L 383 228.230469 L 383.003906 228.238281 C 383.003906 228.25 383 228.246094 383.011719 228.257812 L 383.628906 228.960938 C 383.894531 229.265625 384.199219 229.539062 384.476562 229.824219 C 385.050781 230.378906 385.605469 230.96875 386.222656 231.453125 C 387.414062 232.503906 388.679688 233.429688 389.972656 234.292969 C 392.566406 235.992188 395.351562 237.265625 398.1875 238.105469 C 403.859375 239.78125 409.773438 239.75 414.964844 238.054688 C 420.144531 236.363281 424.234375 233.585938 428.015625 231.324219 C 431.773438 229.015625 435.253906 227.085938 438.632812 226.171875 C 441.984375 225.191406 445.214844 225.351562 448.039062 225.902344 C 450.859375 226.449219 453.265625 227.324219 455.214844 228.070312 C 456.523438 228.582031 457.613281 229.035156 458.503906 229.421875 C 458.402344 229.511719 458.300781 229.605469 458.199219 229.6875 C 455.890625 231.527344 453.394531 232.820312 451.003906 233.6875 C 448.597656 234.527344 446.304688 234.90625 444.253906 235.097656 C 442.207031 235.183594 440.414062 235.097656 438.949219 234.867188 C 438.21875 234.738281 437.570312 234.625 437.007812 234.523438 C 436.453125 234.367188 435.984375 234.238281 435.605469 234.128906 C 434.839844 233.914062 434.433594 233.804688 434.433594 233.804688 C 434.433594 233.804688 434.804688 234.007812 435.503906 234.398438 C 435.863281 234.597656 436.300781 234.832031 436.824219 235.117188 C 437.371094 235.339844 438.003906 235.605469 438.714844 235.894531 C 440.15625 236.445312 441.992188 236.925781 444.191406 237.238281 C 446.390625 237.445312 448.945312 237.480469 451.753906 236.972656 C 454.542969 236.429688 457.570312 235.386719 460.542969 233.566406 C 461.289062 233.121094 462.007812 232.566406 462.75 232.042969 C 463.449219 231.441406 464.1875 230.851562 464.871094 230.167969 C 465.527344 229.449219 466.253906 228.773438 466.839844 227.917969 L 467.070312 227.609375 C 467.160156 227.488281 467.113281 227.5625 467.140625 227.535156 L 467.21875 227.460938 L 467.363281 227.316406 C 467.398438 227.234375 467.457031 227.308594 467.519531 227.371094 L 467.667969 227.527344 C 467.679688 227.546875 467.734375 227.589844 467.707031 227.582031 L 468.261719 227.914062 C 468.683594 228.164062 469.109375 228.414062 469.535156 228.671875 C 470.394531 229.152344 471.285156 229.605469 472.175781 230.074219 C 473.085938 230.492188 474 230.917969 474.925781 231.347656 C 478.652344 232.957031 482.625 234.25 486.742188 235.21875 C 494.984375 237.148438 503.007812 237.664062 510.238281 237.371094 C 517.476562 237.074219 523.949219 235.949219 529.230469 234.398438 C 534.519531 232.871094 538.609375 230.90625 541.210938 229.191406 C 541.867188 228.773438 542.4375 228.386719 542.902344 228 C 543.378906 227.636719 543.785156 227.332031 544.082031 227.046875 C 544.683594 226.492188 545.003906 226.199219 545.003906 226.199219 C 545.003906 226.199219 544.636719 226.410156 543.933594 226.800781 C 543.59375 227.011719 543.140625 227.214844 542.617188 227.460938 C 542.105469 227.722656 541.480469 227.96875 540.785156 228.238281 C 538.007812 229.335938 533.84375 230.425781 528.628906 231.074219 C 523.429688 231.78125 517.171875 232.023438 510.265625 231.683594 Z M 510.265625 231.683594 " fill-opacity="1" fill-rule="nonzero"/><g clip-path="url(#94d5e026f2)"><path fill="#f9f5f2" d="M 236.777344 231.617188 C 236.257812 231.523438 235.8125 231.386719 235.429688 231.246094 C 235.046875 231.117188 234.714844 231.007812 234.449219 230.917969 C 233.90625 230.742188 233.625 230.65625 233.625 230.65625 C 233.625 230.65625 233.867188 230.839844 234.328125 231.175781 C 234.566406 231.347656 234.847656 231.5625 235.195312 231.8125 C 235.53125 232.078125 235.9375 232.355469 236.425781 232.605469 C 238.308594 233.769531 241.253906 235.058594 245.066406 236.011719 C 248.878906 236.953125 253.566406 237.488281 258.773438 237.15625 C 263.964844 236.808594 269.742188 235.691406 275.410156 232.695312 C 276.511719 232.1875 277.535156 231.398438 278.539062 230.769531 L 278.890625 230.535156 L 278.949219 230.480469 L 279.074219 230.363281 C 279.152344 230.28125 279.234375 230.203125 279.308594 230.128906 C 279.324219 230.113281 279.34375 230.105469 279.378906 230.105469 L 279.390625 230.105469 C 279.390625 230.105469 279.378906 230.09375 279.472656 230.15625 L 279.871094 230.425781 L 280.671875 230.960938 C 281.742188 231.664062 282.816406 232.339844 283.90625 232.972656 C 286.082031 234.222656 288.324219 235.273438 290.558594 235.976562 C 295.082031 237.359375 299.230469 237.339844 302.570312 236.554688 C 304.234375 236.152344 305.671875 235.550781 306.847656 234.886719 C 308.011719 234.191406 308.921875 233.457031 309.578125 232.796875 C 309.894531 232.449219 310.171875 232.144531 310.417969 231.882812 C 310.628906 231.589844 310.804688 231.347656 310.953125 231.144531 C 311.230469 230.75 311.371094 230.539062 311.371094 230.539062 C 311.371094 230.539062 311.175781 230.6875 310.796875 230.972656 C 310.613281 231.117188 310.375 231.285156 310.105469 231.488281 C 309.816406 231.65625 309.484375 231.855469 309.101562 232.078125 C 308.34375 232.492188 307.375 232.890625 306.234375 233.207031 C 305.074219 233.492188 303.742188 233.675781 302.265625 233.675781 C 299.324219 233.667969 295.714844 232.882812 292.203125 231.175781 C 290.433594 230.304688 288.632812 229.160156 286.785156 227.816406 C 285.859375 227.148438 284.921875 226.4375 283.960938 225.683594 C 282.390625 224.472656 280.800781 223.246094 279.175781 221.996094 C 278.511719 222.515625 277.820312 223.058594 277.101562 223.621094 C 276.742188 223.90625 276.378906 224.195312 276.003906 224.488281 L 275.441406 224.933594 C 275.316406 225.027344 275.234375 225.0625 275.125 225.136719 C 274.292969 225.609375 273.527344 226.21875 272.585938 226.640625 C 267.921875 229.132812 262.835938 230.574219 258.164062 231.488281 C 253.46875 232.394531 249.125 232.726562 245.464844 232.660156 C 241.796875 232.566406 238.804688 232.160156 236.777344 231.617188 Z M 236.777344 231.617188 " fill-opacity="1" fill-rule="nonzero"/></g><path fill="#f9f5f2" d="M 301.816406 215.785156 C 299.988281 215.039062 297.917969 213.871094 295.824219 212.222656 C 294.789062 211.390625 293.726562 210.46875 292.730469 209.398438 C 292.472656 209.144531 292.242188 208.851562 291.992188 208.582031 L 291.804688 208.371094 L 291.476562 207.984375 L 290.8125 207.191406 L 290.476562 206.792969 L 290.101562 206.285156 L 289.34375 205.242188 C 288.835938 204.539062 288.324219 203.828125 287.808594 203.117188 C 286.746094 204.328125 285.648438 205.566406 284.53125 206.847656 C 284.382812 207.011719 284.246094 207.1875 284.078125 207.347656 L 283.597656 207.753906 L 283.164062 208.105469 C 282.863281 208.335938 282.605469 208.609375 282.253906 208.804688 C 280.960938 209.691406 279.53125 210.523438 277.96875 211.25 C 274.117188 213.03125 270.074219 214.167969 266.328125 214.851562 C 262.578125 215.535156 259.105469 215.746094 256.171875 215.648438 C 253.21875 215.617188 250.863281 215.074219 249.191406 214.707031 C 247.550781 214.179688 246.636719 213.890625 246.636719 213.890625 C 246.636719 213.890625 247.355469 214.539062 248.792969 215.675781 C 250.28125 216.644531 252.554688 218.074219 255.644531 218.996094 C 258.710938 219.976562 262.539062 220.648438 266.808594 220.550781 C 271.070312 220.449219 275.808594 219.625 280.5 217.464844 C 282.398438 216.585938 284.199219 215.46875 285.832031 214.160156 C 286.25 213.875 286.621094 213.464844 287 213.109375 L 287.5625 212.5625 L 287.632812 212.496094 L 287.617188 212.507812 C 287.605469 212.515625 287.589844 212.523438 287.578125 212.523438 C 287.5625 212.523438 287.578125 212.507812 287.578125 212.5 C 287.597656 212.425781 287.625 212.304688 287.6875 212.164062 C 287.714844 212.164062 287.746094 212.164062 287.792969 212.175781 C 287.863281 212.203125 287.839844 212.15625 288.003906 212.277344 L 288.199219 212.414062 L 288.300781 212.480469 L 288.566406 212.699219 C 288.917969 212.976562 289.257812 213.265625 289.609375 213.523438 C 291.003906 214.574219 292.433594 215.378906 293.808594 216.042969 C 296.578125 217.351562 299.191406 217.964844 301.351562 218.121094 C 303.511719 218.304688 305.203125 218 306.320312 217.808594 C 307.425781 217.503906 308.011719 217.335938 308.011719 217.335938 C 308.011719 217.335938 307.410156 217.253906 306.300781 217.105469 C 305.214844 216.855469 303.644531 216.558594 301.816406 215.785156 Z M 301.816406 215.785156 " fill-opacity="1" fill-rule="nonzero"/><g clip-path="url(#e876ab8c5b)"><path stroke-linecap="butt" transform="matrix(0.0156851, 0, 0, -0.0156654, 61.63796, 315.374394)" fill="none" stroke-linejoin="miter" d="M 10363.314165 14777.777489 C 10363.314165 14569.316124 10295.574685 14480.794851 9946.417513 14431.173066 C 9597.0113 14381.800638 8966.436437 14371.327698 8528.371198 14379.057725 C 8090.555002 14387.037108 7845.746514 14412.9701 7725.708171 14467.828354 C 7605.918871 14522.437253 7611.148757 14605.971412 7657.968691 14848.345152 C 7704.788626 15090.718892 7793.447651 15491.932213 7926.436188 15755.251832 C 8059.424726 16018.571451 8236.493734 16143.498657 8450.171946 16214.06632 C 8664.0992 16284.384627 8914.137574 16300.094036 9172.145298 16276.405245 C 9430.153022 16253.215165 9696.130097 16190.626884 9873.448147 16078.416819 C 10050.517155 15966.45611 10139.17618 15804.873617 10217.375433 15559.756964 C 10295.574685 15314.889667 10363.314165 14986.48821 10363.314165 14777.777489 Z M 10363.314165 14777.777489 " stroke="#000000" stroke-width="47.234001" stroke-opacity="1" stroke-miterlimit="22.926001"/></g><g clip-path="url(#0407f3cd7e)"><path stroke-linecap="butt" transform="matrix(0.014732, 0, 0, -0.0147135, 61.63796, 315.374394)" fill="none" stroke-linejoin="miter" d="M 8266.36069 16300.118447 C 8885.230412 16190.737439 9504.100134 16081.090942 9943.725669 15939.851388 C 10383.351204 15798.346345 10643.467398 15624.982756 10903.583593 15451.35368 " stroke="#000000" stroke-width="50.286999" stroke-opacity="1" stroke-miterlimit="22.926001"/></g><g clip-path="url(#1e8badc1d4)"><path stroke-linecap="butt" transform="matrix(0.0148914, 0, 0, -0.0148727, 61.63796, 315.374394)" fill="none" stroke-linejoin="miter" d="M 10789.207834 16300.003568 C 10749.598222 16209.39086 10709.726294 16118.778151 10566.502133 16025.538988 C 10423.015656 15932.037178 10175.652316 15835.908914 9928.55129 15739.518004 " stroke="#000000" stroke-width="49.751999" stroke-opacity="1" stroke-miterlimit="22.926001"/></g><path stroke-linecap="butt" transform="matrix(0.0140856, 0, 0, -0.0140679, 61.63796, 315.374394)" fill="none" stroke-linejoin="miter" d="M 8493.201883 16300.135163 C 7879.763711 16163.79822 7266.048217 16027.461278 6804.028329 15808.378086 C 6342.00844 15589.294893 6031.406834 15287.46545 5790.69059 15084.487233 C 5549.697023 14881.231343 5378.588817 14776.826679 5310.367392 14527.199568 C 5242.145968 14277.572458 5276.811326 13883.000574 5422.128506 13554.792293 C 5567.168363 13226.861684 5822.582719 12965.850023 6034.457386 12743.712439 C 6246.332053 12521.574854 6414.66703 12338.866691 6514.780583 12244.458218 C 6614.894137 12150.327417 6646.786266 12144.496305 6710.570524 12289.441079 C 6774.354782 12434.663524 6870.308493 12730.661856 6965.98488 13026.660187 " stroke="#000000" stroke-width="52.597" stroke-opacity="1" stroke-miterlimit="22.926001"/><path stroke-linecap="butt" transform="matrix(0.012182, 0, 0, -0.0121667, 61.63796, 315.374394)" fill="none" stroke-linejoin="miter" d="M 7083.546879 14623.973358 C 7078.416356 14716.760086 7073.285833 14809.225754 7166.27656 14885.638354 C 7259.267286 14962.050954 7450.699919 15022.410487 7615.197308 15049.37964 C 7779.694696 15076.027731 7917.256839 15069.285443 8259.398581 15025.942161 C 8601.86098 14982.277819 9148.582319 14901.691421 9799.838061 14769.093086 C 10450.773145 14636.49475 11205.921975 14451.884477 11907.200314 14470.506035 C 12608.478654 14488.806532 13256.207162 14710.33886 13692.62226 14918.386611 C 14128.716701 15126.434362 14353.497732 15320.997537 14677.361986 15482.170332 C 15001.22624 15643.343127 15424.173716 15770.804481 15734.570347 15836.300996 C 16044.966979 15901.79751 16242.812765 15905.008123 16271.351298 15762.456886 C 16299.889832 15619.905649 16159.121112 15331.2715 15877.263013 15004.10999 C 15595.404915 14676.94848 15172.457439 14310.938547 14932.605497 14121.512353 C 14692.753555 13931.765099 14635.35583 13918.280522 14605.214009 13911.859295 C 14575.072187 13904.795946 14571.544953 13904.795946 14541.403131 14094.5432 C 14511.261309 14284.290455 14454.184243 14663.463903 14420.835844 14896.554439 C 14387.166788 15129.644976 14377.2264 15216.973662 14366.965355 15304.302347 " stroke="#000000" stroke-width="60.817001" stroke-opacity="1" stroke-miterlimit="22.926001"/><path stroke-linecap="butt" transform="matrix(0.0140638, 0, 0, -0.0140461, 61.63796, 315.374394)" fill="none" stroke-linejoin="miter" d="M 11528.57856 16300.070131 C 11624.680873 16102.339622 11720.783186 15904.609114 12027.42178 15580.620306 C 12334.060375 15256.353397 12851.513003 14805.828188 13235.088998 14493.241562 C 13618.942746 14180.654935 13868.919861 14006.284993 14004.185256 13894.487997 C 14139.172898 13782.691001 14159.726572 13733.188848 14143.616935 13658.101313 C 14127.507299 13583.013779 14075.012105 13482.06276 14022.516911 13381.389842 " stroke="#000000" stroke-width="52.679001" stroke-opacity="1" stroke-miterlimit="22.926001"/><path stroke-linecap="butt" transform="matrix(0.0141187, 0, 0, -0.0141009, 61.63796, 315.374394)" fill="none" stroke-linejoin="miter" d="M 13949.189245 13840.196296 C 13967.172962 13949.619536 13985.156678 14059.319798 14076.458623 14228.302524 C 14168.03724 14397.56227 14332.934086 14626.381503 14282.303007 14823.066315 C 14231.671929 15020.028148 13965.236254 15185.132582 13546.907343 15387.911853 C 13128.578432 15590.414103 12558.079613 15830.868211 12192.318488 15989.047124 C 11826.280691 16147.503057 11664.703916 16223.683794 11503.403814 16299.864531 " stroke="#000000" stroke-width="52.473" stroke-opacity="1" stroke-miterlimit="22.926001"/><path stroke-linecap="butt" transform="matrix(0.0139279, 0, 0, -0.0139104, 61.63796, 315.374394)" fill="none" stroke-linejoin="miter" d="M 13279.534897 15808.192844 C 13162.021064 15960.394928 13044.226769 16112.597013 12945.784394 16197.40334 C 12847.622482 16282.490483 12768.251564 16299.901054 12687.478333 16284.737008 C 12606.705102 16269.292148 12524.249095 16220.711039 12441.793089 16172.410747 " stroke="#000000" stroke-width="53.192001" stroke-opacity="1" stroke-miterlimit="22.926001"/><path stroke-linecap="butt" transform="matrix(0.0140333, 0, 0, -0.0140157, 61.63796, 315.374394)" fill="none" stroke-linejoin="miter" d="M 12772.268651 16130.637453 C 12682.081364 16190.00188 12592.172432 16249.366308 12433.787967 16274.728576 C 12275.681858 16300.090843 12049.378571 16291.172243 11823.075284 16282.53235 " stroke="#000000" stroke-width="52.792" stroke-opacity="1" stroke-miterlimit="22.926001"/><path stroke-linecap="butt" transform="matrix(0.0140028, 0, 0, -0.0139852, 61.63796, 315.374394)" fill="none" stroke-linejoin="miter" d="M 8555.396574 16300.115002 C 8196.93042 16183.362094 7838.743228 16066.8885 7411.373464 15859.917436 C 6984.003699 15652.667059 6487.730323 15354.919213 6147.675661 15166.382819 C 5807.620998 14977.846424 5623.785048 14898.800796 5531.727592 14859.138324 C 5439.949099 14819.475853 5439.949099 14819.475853 5534.796174 14886.790329 C 5629.364288 14954.104804 5819.05844 15088.733756 5988.109404 15232.021415 C 6156.881406 15375.029761 6305.010222 15526.696816 6485.498627 15605.463132 C 6665.987033 15684.229448 6879.113992 15690.374338 7092.24095 15696.519228 " stroke="#000000" stroke-width="52.908001" stroke-opacity="1" stroke-miterlimit="22.926001"/><path stroke-linecap="butt" transform="matrix(0.0139497, 0, 0, -0.0139321, 61.63796, 315.374394)" fill="none" stroke-linejoin="miter" d="M 8633.073247 16299.967826 C 8240.75861 15644.165457 7848.443974 14988.08271 7429.526988 14485.92707 C 7010.610003 13983.491052 6565.090669 13634.701763 6341.070891 13420.773927 C 6116.771088 13206.846091 6113.970841 13127.779709 6124.891805 13041.984273 C 6135.812769 12956.188837 6161.014994 12863.664347 6185.937195 12771.139857 " stroke="#000000" stroke-width="53.111" stroke-opacity="1" stroke-miterlimit="22.926001"/><path stroke-linecap="butt" transform="matrix(0.011174, 0, 0, -0.01116, 61.63796, 315.374394)" fill="none" stroke-linejoin="miter" d="M 9579.170608 16300.184122 C 9368.022293 16153.874352 9157.223561 16007.914606 9038.015655 15865.455093 C 8918.807749 15722.99558 8891.190668 15584.036301 8946.075246 15265.865055 C 9000.959825 14947.343786 9138.346063 14449.960573 9224.343555 14005.43089 C 9310.341048 13560.901206 9344.949795 13169.225052 9451.922285 12865.754788 C 9558.894776 12561.9345 9738.23101 12346.320102 9828.073919 12238.16288 C 9917.567245 12130.355681 9917.567245 12130.355681 9935.745576 11824.785277 C 9954.273491 11519.214872 9990.630155 10908.424086 10027.336402 10297.283277 " stroke="#000000" stroke-width="66.305" stroke-opacity="1" stroke-miterlimit="22.926001"/><g clip-path="url(#f0f35a8e94)"><path stroke-linecap="butt" transform="matrix(0.0140507, 0, 0, -0.0140331, 61.63796, 315.374394)" fill="none" stroke-linejoin="miter" d="M 6551.510719 4042.866369 C 6336.330474 4200.140116 6120.872218 4357.135503 5961.016093 4563.67908 C 5800.881957 4770.222656 5696.071941 5026.314422 5649.644162 5323.046838 C 5602.938373 5619.779253 5614.61482 5957.43068 5774.748956 6309.556858 C 5934.605081 6661.404675 6243.196905 7028.283966 6595.158391 7295.788517 C 6947.119877 7563.571429 7343.007046 7732.257962 7580.150132 7864.757615 C 7817.293219 7996.978907 7895.692223 8093.013319 7962.69279 8167.335603 C 8029.693357 8241.379527 8085.017477 8293.711323 8221.520708 8382.508359 C 8358.301949 8471.305395 8576.540311 8596.289311 8777.264002 8715.706015 C 8978.265703 8834.844359 9161.474723 8948.415489 9331.617243 8999.355482 C 9501.759762 9050.295475 9658.835781 9038.604329 9803.123309 9007.984661 C 9947.132827 8977.643354 10077.797834 8928.095165 10209.018862 8832.060752 C 10339.683868 8736.02634 10470.626886 8593.505705 10568.208625 8341.867709 C 10665.790364 8090.229713 10729.732814 7729.474356 10944.913059 7160.505258 C 11160.371314 6591.814522 11526.789354 5814.910045 11843.999508 5181.918006 C 12161.209663 4549.204328 12428.933921 4060.403087 12769.21896 3625.325446 C 13109.782009 3190.526165 13522.905838 2809.172122 13842.896099 2496.573151 C 14162.88636 2183.69582 14390.021063 1939.2952 14606.591361 1731.35982 C 14823.43967 1523.424441 15030.001585 1351.675941 15181.23938 1248.404153 C 15332.477175 1145.132365 15428.66886 1110.058927 15523.192482 1047.427789 C 15617.716104 985.075011 15710.849673 894.886172 15806.207326 819.172085 C 15901.28697 743.457997 15998.868709 682.497023 16089.222171 619.865884 C 16179.297622 557.234746 16262.144796 493.211804 16281.049521 410.260341 C 16299.954245 327.308878 16254.916519 225.707253 16192.364123 174.767261 C 16129.811726 123.827268 16049.744658 123.827268 15992.196453 128.837759 C 15934.926259 133.84825 15899.896916 144.147593 15859.307361 203.160043 C 15818.439795 261.894133 15772.012016 369.619691 15736.426653 453.962958 C 15700.563279 538.306224 15675.82033 599.545559 15639.400935 657.722928 C 15603.25955 715.900296 15555.163707 771.015698 15502.063673 806.924218 C 15448.963638 842.554376 15390.859412 858.420931 15388.635327 856.194046 C 15386.411241 853.967161 15440.067297 833.646837 15495.391417 789.387499 C 15550.715537 744.8498 15607.42971 676.65145 15658.305659 593.699986 C 15709.459619 510.748523 15754.497345 413.322308 15781.464378 344.288875 C 15808.431412 274.977082 15817.049742 234.336432 15821.497912 214.016107 C 15825.668072 193.695782 15825.668072 193.695782 15815.659689 216.242992 C 15805.373294 238.790202 15785.078517 283.884622 15760.335569 303.369865 C 15735.592621 323.133468 15706.401502 317.287895 15686.662746 293.905604 C 15667.202 270.801673 15656.915606 229.882662 15656.359585 189.242012 C 15655.525553 148.601363 15664.421894 107.682352 15668.592054 87.362027 C 15673.040224 67.041702 15673.040224 67.041702 15661.363777 61.19613 C 15649.687329 55.350557 15626.334434 43.659411 15602.425518 55.350557 C 15578.516602 67.041702 15553.773654 101.836779 15520.134365 163.911197 C 15486.773087 225.707253 15444.515468 314.225929 15423.386658 384.094443 C 15402.535859 453.962958 15402.535859 504.90295 15361.668293 563.080319 C 15320.800727 621.257687 15239.621617 686.672432 15198.754051 712.83833 C 15157.886485 739.282588 15157.886485 725.921279 15188.745667 698.363578 C 15219.048829 670.805877 15280.211172 628.495063 15326.08293 560.296712 C 15371.954687 491.820001 15402.535859 397.177392 15424.776711 334.267893 C 15447.573585 271.358394 15462.030139 240.182005 15462.030139 227.099056 C 15462.030139 214.016107 15447.573585 219.026598 15424.22069 225.150532 C 15400.867795 231.552826 15368.89657 238.790202 15348.601793 227.099056 C 15328.307015 215.40791 15319.410674 184.788243 15326.916962 155.003657 C 15334.145239 125.219071 15357.220123 96.269567 15387.801295 83.186618 C 15418.382466 69.825309 15456.191915 72.887275 15475.096639 74.279078 C 15494.001364 75.670882 15494.001364 75.670882 15491.777279 68.990227 C 15489.831204 62.031211 15485.383034 48.113181 15452.577777 38.64892 C 15419.77252 29.184659 15358.888187 24.174168 15311.626376 31.133183 C 15264.086554 38.092198 15230.725276 56.74236 15200.978136 97.66137 C 15171.230996 138.30202 15144.819984 200.933158 15127.027303 257.718724 C 15109.234621 314.225929 15099.782259 365.165921 15062.806842 427.79706 C 15025.553415 490.428198 14960.776932 564.472122 14917.12926 607.061296 C 14873.481588 649.65047 14850.962725 660.506534 14846.792565 661.341616 C 14842.344395 662.176698 14855.966917 652.712437 14891.830291 615.412114 C 14927.415654 578.390152 14984.963859 513.532129 15021.383255 463.427218 C 15057.52464 413.322308 15072.815225 377.692149 15087.271779 334.824614 C 15101.728333 291.957079 15115.350855 241.852169 15113.12677 226.542335 C 15110.902685 211.232501 15093.110003 230.717744 15072.815225 243.800693 C 15052.520448 256.883642 15030.001585 263.564297 15010.81885 255.491839 C 14991.358104 247.419381 14975.511497 224.872171 14969.951284 202.603322 C 14964.391071 180.612833 14969.673273 158.622345 14979.681657 137.188577 C 14989.968051 115.75481 15005.258637 94.599403 15009.984818 83.743339 C 15014.710999 72.887275 15008.872775 72.052194 14989.41203 70.66039 C 14969.673273 69.268587 14936.311995 67.041702 14902.672706 77.619406 C 14869.311428 88.197109 14835.672139 111.30104 14797.306669 157.508902 C 14758.663188 203.716764 14715.015516 272.750197 14666.641662 348.185924 C 14618.267809 423.34329 14565.167774 504.90295 14509.843654 549.99737 C 14454.519534 595.091789 14397.24934 603.720968 14384.46085 603.442608 C 14371.67236 603.164247 14403.643585 593.699986 14440.062981 574.493104 C 14476.482376 555.007861 14517.071931 526.058357 14555.715412 485.696068 C 14594.358893 445.333778 14630.778288 393.558704 14652.463119 354.031497 C 14674.14795 314.225929 14681.376227 286.668228 14682.488269 272.750197 C 14683.600312 259.110527 14678.59612 259.110527 14669.97779 260.223969 C 14661.081449 261.337412 14648.84898 263.564297 14634.948448 256.883642 C 14621.325926 250.481348 14606.03534 235.171514 14598.251042 218.748238 C 14590.744754 202.324961 14590.744754 184.788243 14598.251042 169.756769 C 14606.03534 154.446936 14621.325926 141.363987 14622.715979 129.672841 C 14624.106032 117.981695 14611.595553 107.682352 14563.49971 109.909237 C 14515.125857 112.136122 14430.610618 126.610874 14329.970762 158.065624 C 14229.052895 189.242012 14112.010411 237.120038 13947.428104 307.545274 C 13782.567788 377.692149 13570.167649 470.107873 13417.26179 583.122283 C 13264.633942 696.136693 13171.500374 830.028149 13086.429114 910.474366 C 13001.357854 990.920584 12924.070893 1017.643203 12844.837857 1042.974019 C 12765.604821 1068.026475 12684.1477 1091.130406 12622.985356 1117.296303 C 12561.823013 1143.462201 12521.233458 1172.690066 12515.395234 1254.806447 C 12509.55701 1337.201189 12538.748129 1472.484448 12545.976406 1551.538863 C 12553.204683 1630.871638 12538.470118 1654.25393 12482.033956 1696.286383 C 12425.319783 1738.597196 12326.34799 1799.836532 12257.95737 1932.057824 C 12189.566749 2064.557477 12151.757301 2268.039086 12112.279788 2394.693166 C 12073.080286 2521.347246 12032.490731 2570.617075 11764.766472 2788.851797 C 11497.042214 3007.08652 11002.461264 3394.007775 10597.121732 3749.752641 C 10192.060212 4105.497507 9876.518121 4430.065984 9656.611695 4742.108234 C 9436.98328 5054.150484 9313.26854 5353.666505 9218.188896 5637.315972 C 9122.831243 5920.965439 9055.830675 6188.748351 9019.41128 6384.435863 C 8983.269895 6580.123376 8977.431671 6703.715489 8971.593448 6827.307602 " stroke="#000000" stroke-width="52.729" stroke-opacity="1" stroke-miterlimit="22.926001"/></g><g clip-path="url(#7af39242f8)"><path stroke-linecap="butt" transform="matrix(0.00942378, 0, 0, -0.00941193, 61.63796, 315.374394)" fill="none" stroke-linejoin="miter" d="M 14117.253154 7523.634559 C 13794.34979 7526.124751 13471.446426 7528.614942 13152.688162 7436.477852 C 12833.929899 7344.340762 12519.316736 7157.991421 12338.175825 6993.223742 C 12157.034913 6828.04103 12109.366252 6684.855012 12040.143066 6606.829007 C 11970.50537 6528.803003 11879.313149 6515.937013 11599.518834 6493.110256 C 11319.72452 6470.283499 10851.328112 6437.911008 10514.745915 6358.639908 C 10177.749207 6279.368808 9972.98122 6153.61413 9580.440159 5972.660205 C 9187.899099 5791.291248 8607.584965 5555.138075 7948.928423 5391.20046 C 7289.857372 5227.677876 6552.443912 5136.37085 6140.420877 5164.593021 C 5728.397842 5192.815193 5641.350722 5340.151531 5441.971366 5431.458558 C 5242.59201 5522.350552 4930.051398 5557.213235 4619.997847 5470.47156 C 4309.944295 5383.729885 4001.963294 5175.383852 3687.350132 5079.926506 C 3372.736969 4984.46916 3051.906155 5001.900502 2726.51573 5062.495165 C 2401.125305 5123.50486 2071.175269 5227.677876 1813.34999 5251.334697 C 1555.1102 5275.406549 1368.580657 5218.962205 1235.108407 5164.593021 C 1101.636156 5110.223837 1021.635708 5058.344845 872.826583 5020.576939 C 724.431969 4982.394 507.643189 4958.73718 354.688964 4877.39092 C 201.734739 4796.04466 112.615068 4657.008961 72.822099 4563.626775 C 32.61462 4470.65962 41.319332 4422.930948 56.241695 4379.352594 C 71.578569 4336.189272 93.133094 4297.17627 132.097043 4271.029258 C 171.475502 4244.882246 227.848875 4232.016256 321.942666 4251.522757 C 416.450968 4271.029258 548.679689 4322.90825 664.742515 4354.450678 C 780.805342 4385.993105 880.702275 4396.783935 988.06039 4403.424446 C 1095.418505 4409.649926 1210.237801 4412.140117 1247.129199 4409.234894 C 1284.020598 4406.744702 1242.984099 4398.859095 1164.64169 4394.708776 C 1086.713793 4390.143424 971.479986 4389.313361 855.002649 4371.882019 C 738.525312 4354.450678 620.389935 4320.833091 522.151042 4294.686079 C 423.91215 4268.954098 345.984252 4250.277661 318.212075 4241.146959 C 290.439899 4232.016256 313.237954 4232.016256 338.93758 4224.130649 C 364.222696 4216.660074 392.409383 4201.718924 401.943115 4164.36605 C 411.062337 4126.598144 401.114095 4067.248576 370.440348 4035.706149 C 339.35209 4004.163722 287.538328 4000.843466 261.838703 3998.353275 C 236.553587 3995.448051 237.382607 3993.372891 249.4034 3982.582061 C 261.424192 3971.791231 284.222248 3952.28473 351.787393 3934.438356 C 419.767049 3916.176951 532.513795 3899.990705 650.234662 3907.876312 C 767.955529 3915.346887 890.236007 3946.889314 981.013718 3953.944857 C 1071.376919 3961.0004 1129.822842 3943.569059 1148.475797 3934.853388 C 1166.714241 3926.137717 1145.159716 3926.137717 1103.294196 3928.212877 C 1061.843187 3930.288037 999.666672 3934.853388 931.687017 3931.533133 C 863.292851 3928.212877 788.266524 3917.422047 744.328454 3907.046248 C 700.390384 3896.67045 687.540571 3887.124715 696.245283 3875.088789 C 704.949995 3863.052863 735.209232 3848.941777 748.888065 3822.379733 C 762.566898 3795.817689 759.250817 3756.804687 741.426883 3737.298185 C 723.188439 3717.791684 690.856651 3717.791684 703.706464 3698.285183 C 716.970787 3678.778682 775.416711 3639.76568 833.448124 3614.448732 C 891.479538 3588.716752 949.096441 3577.095857 1034.07101 3587.886688 C 1119.04558 3598.677518 1231.792326 3632.295105 1291.48178 3647.236255 C 1351.171233 3662.592437 1357.803395 3659.272181 1296.870411 3642.670904 C 1236.351937 3625.654594 1108.268318 3595.357263 1044.433763 3573.775602 C 980.184698 3552.193941 980.184698 3538.912919 1009.614915 3533.517504 C 1039.045132 3528.122089 1097.491055 3530.197248 1119.04558 3518.576354 C 1141.014615 3506.540428 1125.677742 3480.393416 1111.584398 3462.962074 C 1097.491055 3445.530733 1084.641242 3436.815062 1073.449469 3432.664743 C 1062.672207 3428.514423 1053.967495 3428.514423 1055.211025 3415.233401 C 1056.040045 3402.367411 1067.231818 3376.220399 1112.413418 3363.354409 C 1158.009529 3350.073387 1238.424487 3350.073387 1347.026133 3352.563579 C 1455.213267 3354.638738 1592.001599 3358.789058 1706.820895 3377.465495 C 1822.054702 3395.7269 1915.319473 3428.514423 2192.626727 3436.815062 C 2470.348491 3445.530733 2932.527248 3430.589583 3396.364045 3423.119008 C 3860.615352 3415.233401 4326.939209 3415.233401 4766.31991 3421.873912 C 5205.700611 3428.514423 5617.723646 3441.380413 6316.173157 3434.739902 C 7014.622668 3428.514423 7999.084145 3402.367411 8855.876512 3432.664743 C 9712.66888 3462.962074 10441.377628 3549.703749 11100.86319 3638.935616 C 11760.348752 3727.752451 12350.196617 3818.644445 12849.266772 3864.297959 C 13347.922417 3909.951472 13755.800351 3909.951472 14176.528098 3959.755304 C 14597.255845 4009.559137 15031.247915 4109.581834 15387.312087 4318.342899 C 15743.376259 4527.518996 16021.512533 4846.263525 16300.063317 5164.593021 " stroke="#000000" stroke-width="78.616997" stroke-opacity="1" stroke-miterlimit="22.926001"/></g><g clip-path="url(#ba3d41bd7b)"><path stroke-linecap="butt" transform="matrix(0.008712, 0, 0, -0.00870105, 61.63796, 315.374394)" fill="none" stroke-linejoin="miter" d="M 571.984843 4933.332395 C 554.94657 4970.594419 531.182663 5015.488422 485.44835 5036.588604 C 439.714038 5057.688786 372.009321 5054.995146 309.685111 5041.078005 C 247.360901 5027.160863 191.31395 5001.122341 155.443901 4973.736999 C 119.573852 4945.902716 104.329081 4916.721614 101.638828 4870.48079 C 98.500198 4824.239966 107.916086 4760.939421 119.573852 4714.698597 C 131.231618 4668.457773 145.579638 4639.276671 197.142833 4631.19575 C 248.706028 4622.665889 337.932774 4635.68515 412.811501 4651.846992 C 488.138604 4668.008833 549.117687 4688.211135 579.607229 4719.187997 C 610.09677 4750.16486 610.09677 4792.365223 604.716263 4828.729367 C 599.335755 4865.09351 589.023116 4895.621432 571.984843 4933.332395 Z M 571.984843 4933.332395 " stroke="#000000" stroke-width="85.039001" stroke-opacity="1" stroke-miterlimit="22.926001"/></g><g clip-path="url(#6e0ead5440)"><path stroke-linecap="butt" transform="matrix(0.008712, 0, 0, -0.00870105, 61.63796, 315.374394)" fill="none" stroke-linejoin="miter" d="M 345.55516 4334.895325 C 298.924096 4331.303804 252.293033 4327.712284 226.287247 4351.955046 C 200.729838 4375.748868 195.797706 4427.376973 202.52334 4465.087936 C 208.800599 4502.798899 226.287247 4526.143781 251.396282 4542.305622 C 276.05694 4558.467464 308.339984 4566.997324 340.174653 4575.976125 " stroke="#000000" stroke-width="85.039001" stroke-opacity="1" stroke-miterlimit="22.926001"/></g><g clip-path="url(#c79896e5ae)"><path stroke-linecap="butt" transform="matrix(0.008712, 0, 0, -0.00870105, 61.63796, 315.374394)" fill="none" stroke-linejoin="miter" d="M 774.650619 4024.677758 C 744.161078 4026.922459 714.119912 4029.616099 696.633263 4048.02264 C 679.146614 4066.429182 674.662858 4100.099685 674.662858 4122.546687 C 674.662858 4144.993689 679.146614 4155.31931 693.046258 4165.19599 C 706.945902 4174.623731 730.261434 4183.153592 746.851331 4183.153592 C 763.441229 4183.153592 773.753868 4174.174791 784.066507 4165.64493 " stroke="#000000" stroke-width="85.039001" stroke-opacity="1" stroke-miterlimit="22.926001"/></g><g clip-path="url(#56314f806c)"><path stroke-linecap="butt" transform="matrix(0.008712, 0, 0, -0.00870105, 61.63796, 315.374394)" fill="none" stroke-linejoin="miter" d="M 1112.72583 3819.512161 C 1089.410298 3815.920641 1066.094766 3812.32912 1059.369132 3794.820459 C 1052.195122 3777.760738 1061.61101 3746.783875 1079.097659 3729.724153 C 1096.135932 3712.664432 1121.693342 3710.419732 1140.525117 3712.215492 C 1159.356893 3714.011252 1171.463035 3720.296413 1184.017552 3727.030513 " stroke="#000000" stroke-width="85.039001" stroke-opacity="1" stroke-miterlimit="22.926001"/></g><g clip-path="url(#0af3bc5c10)"><path stroke-linecap="butt" transform="matrix(0.0140124, 0, 0, -0.0139948, 61.63796, 315.374394)" fill="none" stroke-linejoin="miter" d="M 16299.942161 469.440109 C 16257.011396 472.510453 16214.080632 475.580796 16181.18563 456.600491 C 16148.5694 437.899308 16125.988933 396.868354 16114.280543 376.492438 C 16102.572153 356.116522 16102.01461 356.116522 16068.562066 374.259461 C 16035.388294 392.4024 15969.598291 428.9674 15933.636807 463.299422 C 15897.396551 497.631445 15890.984813 530.288735 15899.347949 558.759193 C 15907.711085 587.508773 15931.127866 612.350643 15958.168672 624.632017 C 15985.209478 637.192513 16015.595539 637.192513 16056.296134 626.30675 C 16097.2755 615.700109 16148.011858 594.486826 16199.026987 572.994422 " stroke="#000000" stroke-width="52.870998" stroke-opacity="1" stroke-miterlimit="22.926001"/></g><g clip-path="url(#9dd0568ca3)"><path stroke-linecap="butt" transform="matrix(0.0136657, 0, 0, -0.0136485, 61.63796, 315.374394)" fill="none" stroke-linejoin="miter" d="M 16260.455447 222.336291 C 16273.604291 196.291703 16286.753134 170.247114 16293.327556 145.919752 C 16299.901978 121.306185 16299.901978 98.696048 16277.606113 85.244448 C 16255.024403 71.506643 16210.432672 67.499783 16181.27654 64.923945 C 16152.406252 62.348107 16139.257409 61.203289 16130.396231 62.920515 C 16121.535054 64.637741 16116.675699 69.217009 16113.245565 77.516933 C 16109.815432 85.816856 16107.528677 97.837435 16105.241921 109.858015 " stroke="#000000" stroke-width="54.212002" stroke-opacity="1" stroke-miterlimit="22.926001"/></g><g clip-path="url(#5f324795fc)"><path stroke-linecap="butt" transform="matrix(0.0133712, 0, 0, -0.0133544, 61.63796, 315.374394)" fill="none" stroke-linejoin="miter" d="M 16185.890077 242.443023 C 16206.047695 238.055416 16225.621034 233.960316 16242.857258 221.090001 C 16259.801342 208.219687 16274.116172 186.866665 16283.756772 164.928629 C 16293.397372 143.2831 16298.363742 121.345064 16299.24016 107.889736 C 16300.116578 94.434407 16296.610905 89.754292 16289.59956 86.244207 C 16282.588215 82.734121 16271.779057 80.394064 16261.262039 78.054007 " stroke="#000000" stroke-width="55.408001" stroke-opacity="1" stroke-miterlimit="22.926001"/></g><g clip-path="url(#0d479f4593)"><path stroke-linecap="butt" transform="matrix(0.0130445, 0, 0, -0.0130281, 61.63796, 315.374394)" fill="none" stroke-linejoin="miter" d="M 16217.248525 272.201864 C 16239.108819 259.00921 16260.969113 245.816556 16276.241373 224.52841 C 16291.513634 203.240264 16299.898404 173.856626 16297.203299 150.169816 C 16294.208738 126.483005 16279.53539 108.493023 16256.177816 98.298699 C 16233.119697 88.104376 16201.077896 85.405878 16181.912707 90.203207 C 16163.046974 95.000536 16156.758396 106.993858 16150.769274 118.987179 " stroke="#000000" stroke-width="56.794998" stroke-opacity="1" stroke-miterlimit="22.926001"/></g><g clip-path="url(#2a613d0e30)"><path stroke-linecap="butt" transform="matrix(0.0126882, 0, 0, -0.0126722, 61.63796, 315.374394)" fill="none" stroke-linejoin="miter" d="M 16179.477672 166.100671 C 16198.565348 149.763247 16217.653023 133.425823 16237.048564 134.96709 C 16256.444104 136.200103 16276.147511 155.003553 16287.230677 177.197789 C 16298.005978 199.392024 16299.853172 224.668793 16291.848663 244.397003 C 16283.844154 264.125213 16265.680076 278.304863 16247.823864 292.176261 " stroke="#000000" stroke-width="58.388" stroke-opacity="1" stroke-miterlimit="22.926001"/></g><path stroke-linecap="butt" transform="matrix(0.0102514, 0, 0, -0.0102385, 61.63796, 315.374394)" fill="none" stroke-linejoin="miter" d="M 15308.740466 9063.0589 C 15379.99587 9345.005618 15451.251274 9626.570811 15558.324902 9911.188202 C 15666.16062 10195.805593 15809.433517 10482.712131 15938.988797 10760.080554 C 16068.544077 11037.067451 16184.381738 11304.134708 16299.838355 11571.201965 " stroke="#000000" stroke-width="72.268997" stroke-opacity="1" stroke-miterlimit="22.926001"/><path stroke-linecap="butt" transform="matrix(0.0118466, 0, 0, -0.0118317, 61.63796, 315.374394)" fill="none" stroke-linejoin="miter" d="M 15859.887451 14954.162475 C 15947.927076 14553.028361 16035.966701 14151.894248 16067.951134 13838.910594 C 16099.935567 13526.257091 16075.535071 13302.0842 16117.081861 13024.096609 C 16158.62865 12746.439169 16265.463251 12414.967029 16282.609545 12144.242771 C 16300.085575 11873.188362 16227.543562 11662.881835 16148.077084 11393.808335 C 16068.940343 11124.404684 15982.5494 10796.564211 15913.634488 10608.707988 C 15844.389839 10420.521614 15792.621221 10372.31949 15740.852602 10324.117366 " stroke="#000000" stroke-width="62.537998" stroke-opacity="1" stroke-miterlimit="22.926001"/><path stroke-linecap="butt" transform="matrix(0.0108813, 0, 0, -0.0108676, 61.63796, 315.374394)" fill="none" stroke-linejoin="miter" d="M 16300.078512 15663.601494 C 16297.565598 15489.273306 16295.411672 15314.945118 16237.973651 15105.391852 C 16180.535629 14896.198027 16067.813512 14652.138563 15992.426109 14400.171429 C 15917.397693 14148.563735 15879.703991 13889.40781 15861.036634 13661.882567 C 15844.523203 13462.03417 15842.369277 13286.987102 15842.369277 13115.174991 " stroke="#000000" stroke-width="68.089996" stroke-opacity="1" stroke-miterlimit="22.926001"/><path stroke-linecap="butt" transform="matrix(0.011147, 0, 0, -0.011133, 61.63796, 315.374394)" fill="none" stroke-linejoin="miter" d="M 16300.154559 12479.390951 C 16098.3067 12589.21372 15896.458841 12699.38736 15757.338008 12750.614594 C 15617.866745 12801.841828 15540.772076 12794.824399 15436.343844 12803.947057 C 15331.915612 12813.069715 15199.803385 12838.683332 14750.551727 13014.820807 C 14301.300069 13190.958283 13534.908981 13517.268746 13072.691401 13713.405895 C 12610.473822 13909.543044 12452.780183 13975.50688 12266.000827 13986.734767 C 12078.871042 13997.611782 11862.65554 13953.752849 11633.123687 13920.42006 C 11403.942264 13887.438142 11162.14535 13865.684111 10947.33157 13806.737705 C 10732.86822 13748.14217 10545.738434 13653.056003 10413.976638 13570.250337 C 10281.864411 13487.795543 10204.769743 13418.322993 10135.034111 13256.922119 C 10107.350116 13192.71264 10080.717413 13114.117432 10057.238582 13029.557409 " stroke="#000000" stroke-width="66.462997" stroke-opacity="1" stroke-miterlimit="22.926001"/><path stroke-linecap="butt" transform="matrix(0.0123318, 0, 0, -0.0123163, 61.63796, 315.374394)" fill="none" stroke-linejoin="miter" d="M 9817.916323 10276.253038 C 9820.133652 10248.977275 9822.03422 10221.384352 9825.835356 10207.74647 C 9829.636492 10193.474269 9835.338196 10193.157109 9849.909216 10227.727552 C 9864.480236 10262.297996 9887.920574 10332.073204 9921.814034 10431.661454 C 9955.707495 10531.249705 10000.054079 10660.650999 10028.245836 10759.60493 C 10056.120832 10858.2417 10067.841 10926.113948 10071.642136 10969.564872 C 10075.443272 11013.332957 10071.008614 11032.362559 10081.778498 11039.02292 C 10092.548383 11045.36612 10118.522811 11039.65724 10135.311161 11046.00044 C 10152.416272 11052.343641 10160.652066 11070.421763 10161.60235 11091.988645 C 10162.235872 11113.555528 10155.583885 11138.29401 10169.521383 11148.760292 C 10183.142119 11159.226573 10217.03558 11154.786332 10238.258588 11170.327174 C 10259.164835 11185.550855 10267.71739 11220.438459 10380.801179 11284.504786 C 10493.884969 11348.888273 10711.816753 11442.450483 10872.097979 11514.128651 C 11032.379204 11585.806819 11135.326631 11635.600944 11183.15759 11670.488548 C 11231.305309 11705.058991 11224.653322 11725.040074 11231.305309 11696.812831 C 11237.957297 11668.585587 11257.91326 11592.467179 11420.411814 11511.274211 C 11582.910369 11430.081242 11887.951515 11343.813713 12360.242635 11216.315379 C 12832.533755 11088.499885 13472.391611 10919.453587 13903.186999 10793.541053 C 14334.299148 10667.62852 14556.34883 10584.849751 14724.549088 10445.933656 C 14892.749346 10307.017561 15007.100181 10112.2813 15182.90271 9900.101237 C 15358.388479 9687.921174 15595.642703 9458.61447 15730.583023 9309.866414 C 15865.840105 9161.118358 15898.783281 9092.92895 15967.837248 8851.887324 C 16036.257692 8610.528538 16140.788926 8196.317534 16205.408234 7933.709026 C 16270.344304 7670.783357 16295.051686 7559.777345 16297.585777 7512.5205 C 16300.119867 7465.263655 16280.163904 7482.073137 16258.624135 7489.050658 C 16237.084366 7496.345339 16213.96079 7494.125218 16197.17244 7474.144136 C 16180.700852 7454.163054 16170.564489 7416.73817 16174.682387 7368.847005 C 16179.117045 7321.273 16197.17244 7263.232713 16206.358518 7234.05399 C 16215.544596 7205.192427 16215.544596 7205.192427 16207.308802 7210.901308 C 16198.756246 7216.610188 16182.284658 7228.34511 16162.328695 7243.251631 C 16142.372732 7258.158153 16119.249157 7276.553435 16105.311659 7303.829198 C 16091.057399 7331.104961 16086.30598 7367.578365 16066.350017 7486.830538 C 16046.394054 7606.39987 16011.55031 7808.430812 15988.426734 7951.787148 C 15965.303158 8095.143483 15953.582989 8179.825212 15925.391232 8280.682103 C 15897.199475 8381.856154 15852.53613 8499.522526 15828.46227 8599.745097 C 15804.38841 8700.284828 15801.220797 8783.063597 15797.736422 8865.842366 " stroke="#000000" stroke-width="60.077" stroke-opacity="1" stroke-miterlimit="22.926001"/><path stroke-linecap="butt" transform="matrix(0.0121846, 0, 0, -0.0121693, 61.63796, 315.374394)" fill="none" stroke-linejoin="miter" d="M 15631.489978 8862.550774 C 15678.616539 8667.708378 15725.422512 8473.186974 15749.787264 8349.925886 C 15774.152017 8226.664799 15775.754961 8174.664027 15805.249136 8076.440348 C 15834.422721 7978.216669 15891.487537 7834.091074 15935.087621 7704.089146 C 15978.687704 7574.087218 16009.143645 7458.208956 16032.546632 7356.133367 C 16055.949618 7253.736787 16072.620238 7164.821888 16103.717357 7117.31501 C 16134.814475 7069.48714 16180.338092 7063.067292 16189.955758 7086.178746 C 16199.573423 7108.969207 16173.605726 7161.290971 16162.705705 7209.118841 C 16152.126273 7256.625718 16156.614517 7299.638702 16163.667472 7326.281073 C 16170.720427 7352.602451 16180.658681 7362.553216 16191.238113 7370.257034 C 16201.496956 7377.639859 16212.396977 7382.775738 16230.670542 7385.985662 C 16248.944106 7389.195586 16274.591215 7390.800548 16287.09418 7391.442533 C 16299.917734 7392.084518 16299.917734 7392.084518 16299.917734 7392.084518 " stroke="#000000" stroke-width="60.803001" stroke-opacity="1" stroke-miterlimit="22.926001"/><path stroke-linecap="butt" transform="matrix(0.0119668, 0, 0, -0.0119518, 61.63796, 315.374394)" fill="none" stroke-linejoin="miter" d="M 16299.863612 7592.970981 C 16276.361106 7612.254223 16252.8586 7631.537465 16227.397551 7641.015669 C 16201.936503 7650.820707 16174.516912 7650.820707 16155.910762 7625.981277 C 16136.978187 7601.141846 16126.859053 7551.78982 16136.651764 7498.515778 C 16146.444475 7445.568571 16176.475455 7388.699348 16192.79664 7360.591571 C 16209.117824 7332.483795 16211.40279 7332.810629 16193.775911 7328.561779 C 16176.149031 7324.639764 16138.610306 7316.142064 16093.237412 7332.15696 C 16048.190942 7348.498691 15995.310303 7389.353017 15955.813036 7488.383905 C 15916.642192 7587.414792 15890.85472 7744.622241 15848.419639 7896.600335 C 15805.658135 8048.905265 15745.922598 8195.654006 15709.036721 8300.567916 C 15672.477267 8405.808661 15658.767471 8468.887741 15628.083644 8576.416329 C 15597.073393 8684.271751 15549.415533 8836.249845 15501.757673 8988.22794 " stroke="#000000" stroke-width="61.911999" stroke-opacity="1" stroke-miterlimit="22.926001"/><path stroke-linecap="butt" transform="matrix(0.0116183, 0, 0, -0.0116037, 61.63796, 315.374394)" fill="none" stroke-linejoin="miter" d="M 16299.903983 8209.193565 C 16271.325758 8238.48104 16242.411319 8267.431879 16210.47095 8276.857733 C 16178.530581 8286.283587 16143.228068 8275.511182 16133.47785 8227.371998 C 16124.063847 8178.896176 16139.865924 8092.716937 16161.047432 8040.874738 C 16181.892725 7989.032539 16208.453663 7971.190744 16209.126092 7958.061875 C 16210.134735 7944.933007 16185.591083 7936.180428 16139.865924 7959.745063 C 16094.140764 7983.646337 16027.234097 8039.864825 15991.259155 8109.548819 C 15954.947999 8178.896176 15949.904782 8261.709039 15918.973057 8324.996917 C 15888.041331 8388.284796 15831.893525 8432.384329 15767.676572 8530.682524 C 15703.45962 8629.317356 15631.509737 8782.487488 15603.940155 8891.22145 C 15576.706788 9000.628688 15594.526152 9065.599755 15552.163136 9144.709603 C 15510.136335 9223.819452 15407.927154 9317.068082 15358.83985 9378.672773 C 15309.416332 9440.277463 15312.778476 9470.238214 15281.174322 9504.575255 C 15249.570167 9538.912296 15182.6635 9577.625626 15104.661757 9684.003124 C 15026.323799 9790.380623 14936.554552 9964.422289 14882.760247 10079.889005 C 14828.965941 10195.019082 14811.482792 10251.23757 14768.447347 10276.822032 C 14725.411903 10302.406493 14656.824163 10297.020291 14588.236424 10280.861684 C 14519.648684 10264.366439 14450.72473 10237.098789 14291.695315 10212.52424 C 14132.329684 10187.949691 13882.522378 10166.068244 13606.826562 10165.731606 C 13331.130747 10165.731606 13029.546421 10187.276416 12727.962096 10208.821226 " stroke="#000000" stroke-width="63.765999" stroke-opacity="1" stroke-miterlimit="22.926001"/><path stroke-linecap="butt" transform="matrix(0.00918855, 0, 0, -0.009177, 61.63796, 315.374394)" fill="none" stroke-linejoin="miter" d="M 12379.826199 16238.309034 C 12139.632589 16269.381969 11899.43898 16300.029247 11745.545021 16278.746415 C 11591.651062 16257.463583 11523.631633 16183.824984 11524.481876 16096.565374 C 11524.906997 16009.305763 11593.776669 15907.999483 11694.95557 15848.407553 C 11796.134471 15788.815624 11929.622601 15771.363702 12019.323224 15771.363702 C 12109.023846 15771.363702 12154.936961 15789.241281 12200.850076 15807.118859 " stroke="#000000" stroke-width="80.632004" stroke-opacity="1" stroke-miterlimit="22.926001"/><path stroke-linecap="butt" transform="matrix(0.010944, 0, 0, -0.0109303, 61.63796, 315.374394)" fill="none" stroke-linejoin="miter" d="M 10402.97166 16300.020675 C 10679.235567 16060.933831 10955.856404 15821.846987 11196.784229 15468.398723 C 11438.068985 15114.95046 11643.660729 14647.140776 11849.252474 14179.331092 " stroke="#000000" stroke-width="67.697998" stroke-opacity="1" stroke-miterlimit="22.926001"/><path stroke-linecap="butt" transform="matrix(0.0087939, 0, 0, -0.00878284, 61.63796, 315.374394)" fill="none" stroke-linejoin="miter" d="M 13042.905214 16299.91376 C 12984.270806 16096.658769 12882.104793 15872.500093 12849.233988 15631.885324 C 12816.807384 15391.270554 12857.673789 15133.754932 12890.988794 14910.041015 C 12917.640797 14729.023988 12978.496205 14583.142945 13022.027811 14487.5197 " stroke="#000000" stroke-width="84.250999" stroke-opacity="1" stroke-miterlimit="22.926001"/><path stroke-linecap="butt" transform="matrix(0.008942, 0, 0, -0.00893076, 61.63796, 315.374394)" fill="none" stroke-linejoin="miter" d="M 12553.854273 16299.814506 C 12517.596307 15919.282716 12481.775184 15539.188319 12480.901498 15244.822923 C 12479.590969 14950.457527 12514.101563 14742.695917 12574.385892 14590.483201 C 12634.233378 14438.707878 12720.291442 14342.918841 12805.912662 14247.129805 " stroke="#000000" stroke-width="82.852997" stroke-opacity="1" stroke-miterlimit="22.926001"/><path stroke-linecap="butt" transform="matrix(0.012358, 0, 0, -0.0123424, 61.63796, 315.374394)" fill="none" stroke-linejoin="miter" d="M 16254.266988 7465.616848 C 16262.801455 7455.80568 16271.019831 7445.994511 16280.186481 7399.470585 C 16289.669223 7353.263148 16300.100239 7270.342953 16295.674959 7225.401473 C 16291.24968 7180.459993 16272.284197 7173.497229 16249.209526 7175.079675 C 16226.450946 7176.345632 16199.583178 7186.1568 16185.991248 7194.702011 C 16172.71541 7203.563712 16172.399318 7211.159455 16172.083227 7218.755198 " stroke="#000000" stroke-width="59.950001" stroke-opacity="1" stroke-miterlimit="22.926001"/><path stroke-linecap="butt" transform="matrix(0.0120139, 0, 0, -0.0119987, 61.63796, 315.374394)" fill="none" stroke-linejoin="miter" d="M 16112.479722 7360.092615 C 16127.436413 7336.327114 16142.067958 7312.236058 16156.699504 7291.726105 C 16171.331049 7271.216152 16185.637449 7254.287302 16197.01754 7245.497322 C 16208.397631 7236.381787 16216.526268 7235.405123 16231.157813 7240.288445 C 16245.789358 7244.846212 16267.248958 7254.938411 16279.604486 7263.077282 C 16292.285158 7271.216152 16296.186904 7277.401693 16300.088649 7283.587235 " stroke="#000000" stroke-width="61.665001" stroke-opacity="1" stroke-miterlimit="22.926001"/><path stroke-linecap="butt" transform="matrix(0.0116741, 0, 0, -0.0116594, 61.63796, 315.374394)" fill="none" stroke-linejoin="miter" d="M 16118.328722 7944.512045 C 16145.766634 7908.998876 16173.204547 7873.150676 16194.619502 7857.404271 C 16216.034458 7841.992895 16231.091849 7846.683314 16247.822284 7853.048882 C 16264.218109 7859.41445 16282.286978 7867.120138 16300.021239 7875.160856 " stroke="#000000" stroke-width="63.465" stroke-opacity="1" stroke-miterlimit="22.926001"/><path stroke-linecap="butt" transform="matrix(0.0122351, 0, 0, -0.0122198, 61.63796, 315.374394)" fill="none" stroke-linejoin="miter" d="M 16109.046241 7134.913144 C 16125.009484 7094.954795 16140.653463 7054.996447 16172.260686 7035.496772 C 16203.867908 7015.677431 16251.757639 7015.997098 16275.702504 7035.816439 C 16299.64737 7055.316113 16299.966634 7094.315462 16291.346483 7148.019483 C 16282.726331 7202.04317 16264.847498 7271.091197 16247.287931 7339.819557 " stroke="#000000" stroke-width="60.553001" stroke-opacity="1" stroke-miterlimit="22.926001"/><path stroke-linecap="butt" transform="matrix(0.008712, 0, 0, -0.00870105, 61.63796, 315.374394)" fill="none" stroke-linejoin="miter" d="M 13688.764956 14584.196393 C 13684.2812 14701.369743 13699.077595 14879.598938 13700.422721 15025.05551 C 13702.216224 15183.980283 13694.145463 15299.806813 13725.08338 15433.590945 C 13756.021297 15567.375076 13826.416268 15718.667869 13865.424946 15810.251636 C 13903.985249 15901.835404 13911.159258 15933.710147 13902.191746 15929.220747 C 13893.224234 15925.180286 13869.011951 15885.224623 13833.590278 15795.885555 C 13798.61698 15706.097548 13752.882668 15566.477196 13725.08338 15443.018685 C 13697.284092 15320.009115 13688.31658 15213.161386 13685.177951 15072.194214 C 13682.487697 14931.675982 13685.626326 14757.038307 13687.419829 14669.495 C 13689.213331 14581.951692 13689.213331 14581.951692 13678.003941 14625.498876 C 13666.794551 14669.04606 13644.824146 14755.691487 13616.128107 14801.034431 C 13587.432068 14845.928435 13552.010394 14849.519955 13524.659482 14840.092214 C 13496.860194 14830.664474 13477.131667 14808.666412 13470.406033 14776.342729 C 13464.128775 14744.019046 13471.302784 14701.818683 13458.299892 14708.103843 C 13445.296999 14714.837944 13412.565579 14769.608628 13375.350404 14868.824377 C 13338.583604 14968.040125 13297.333048 15111.251997 13274.465891 15249.076589 C 13251.598735 15386.901181 13247.114979 15519.338492 13286.572033 15676.467505 C 13325.580711 15833.596518 13408.978575 16015.417234 13444.400248 16107.001002 C 13479.373545 16198.584769 13466.370653 16199.931589 13437.226238 16143.365145 C 13407.633448 16087.24764 13361.899135 15973.21687 13327.822589 15851.55412 C 13294.194418 15729.44243 13271.775638 15599.249819 13267.740257 15469.057208 C 13263.704877 15338.864597 13277.604521 15208.671986 13302.713555 15090.600756 C 13327.822589 14972.529526 13364.589389 14867.028617 13391.940301 14791.60669 C 13419.291214 14715.735824 13438.122989 14669.94394 13446.642126 14647.047998 C 13454.712887 14624.152056 13452.471009 14624.152056 13432.294106 14642.558598 C 13412.565579 14660.516199 13374.902028 14696.880342 13332.306345 14711.246423 C 13289.262287 14725.163565 13241.286096 14717.082644 13217.073813 14688.799422 C 13193.309906 14660.516199 13193.309906 14612.479615 13193.309906 14588.685793 C 13193.309906 14564.443031 13193.309906 14564.443031 13180.755389 14583.298513 C 13168.649247 14602.153994 13144.436964 14640.313897 13119.776306 14678.024861 " stroke="#000000" stroke-width="85.039001" stroke-opacity="1" stroke-miterlimit="22.926001"/><path stroke-linecap="butt" transform="matrix(0.008712, 0, 0, -0.00870105, 61.63796, 315.374394)" fill="none" stroke-linejoin="miter" d="M 13906.227127 14442.331341 C 13900.398244 14520.446907 13894.120985 14599.011414 13881.118093 14649.292698 C 13868.1152 14700.022922 13848.386673 14722.918864 13824.17439 14732.346605 C 13800.410483 14741.774346 13772.162819 14737.284946 13754.67617 14729.652965 C 13737.189522 14721.572044 13730.912263 14709.899603 13724.635004 14693.288822 C 13717.90937 14676.67804 13711.632112 14654.679979 13706.251604 14635.375557 C 13701.319473 14616.071135 13697.284092 14599.011414 13693.697087 14581.951692 " stroke="#000000" stroke-width="85.039001" stroke-opacity="1" stroke-miterlimit="22.926001"/><path stroke-linecap="butt" transform="matrix(0.008712, 0, 0, -0.00870105, 61.63796, 315.374394)" fill="none" stroke-linejoin="miter" d="M 13467.267404 14739.529646 C 13467.267404 14701.818683 13467.71578 14664.107719 13478.028419 14617.866896 C 13488.789433 14572.075012 13509.863087 14518.202207 13536.765624 14488.123225 C 13563.66816 14458.493182 13596.847955 14452.656962 13619.266736 14452.656962 C 13641.685516 14452.656962 13654.240034 14458.493182 13665.897799 14467.920923 C 13677.555565 14477.797604 13688.764956 14491.265805 13687.868204 14528.078888 C 13687.419829 14564.891971 13674.865312 14625.049936 13661.862419 14685.207901 " stroke="#000000" stroke-width="85.039001" stroke-opacity="1" stroke-miterlimit="22.926001"/><path stroke-linecap="butt" transform="matrix(0.008712, 0, 0, -0.00870105, 61.63796, 315.374394)" fill="none" stroke-linejoin="miter" d="M 13196.896911 14641.211777 C 13195.103408 14617.417955 13193.758282 14594.073073 13212.590057 14551.42377 C 13230.973457 14509.223406 13269.982135 14448.167561 13311.232691 14420.333279 C 13352.034872 14392.498996 13395.078931 14398.335217 13423.77497 14414.945998 C 13452.919384 14431.55678 13468.164155 14458.493182 13472.647911 14486.776404 C 13477.131667 14515.059627 13470.406033 14545.138609 13464.57715 14569.381371 C 13458.748267 14593.175193 13453.816136 14611.581735 13440.364867 14629.090396 C 13427.361975 14647.047998 13406.736697 14664.556659 13385.663043 14682.065321 " stroke="#000000" stroke-width="85.039001" stroke-opacity="1" stroke-miterlimit="22.926001"/><path stroke-linecap="butt" transform="matrix(0.008712, 0, 0, -0.00870105, 61.63796, 315.374394)" fill="none" stroke-linejoin="miter" d="M 13901.743371 14499.795666 C 13900.398244 14466.574103 13899.053117 14433.35254 13886.050224 14407.762958 C 13873.495707 14382.173376 13849.283424 14363.766834 13820.13901 14364.215774 C 13790.546219 14364.215774 13756.021297 14383.071256 13737.189522 14406.416138 C 13717.90937 14429.31208 13714.322365 14457.146362 13710.735361 14491.714745 C 13707.148356 14525.834188 13703.561351 14567.585611 13703.112975 14594.073073 C 13702.6646 14621.009476 13705.803229 14633.130857 13708.941858 14645.252238 " stroke="#000000" stroke-width="85.039001" stroke-opacity="1" stroke-miterlimit="22.926001"/><path stroke-linecap="butt" transform="matrix(0.0113082, 0, 0, -0.011294, 61.63796, 315.374394)" fill="none" stroke-linejoin="miter" d="M 15510.990796 16215.397021 C 15456.757386 16240.645573 15402.178541 16265.894126 15346.217953 16280.07482 C 15290.257365 16294.255514 15232.224163 16297.022479 15174.536396 16300.135314 " stroke="#000000" stroke-width="65.514999" stroke-opacity="1" stroke-miterlimit="22.926001"/><path stroke-linecap="butt" transform="matrix(0.00953267, 0, 0, -0.00952069, 61.63796, 315.374394)" fill="none" stroke-linejoin="miter" d="M 16299.892174 15607.392396 C 16277.354559 15753.455865 16254.816945 15899.519334 16199.497346 15990.603857 C 16144.177747 16082.09867 16056.485937 16118.614538 15968.384354 16154.720114 " stroke="#000000" stroke-width="77.720001" stroke-opacity="1" stroke-miterlimit="22.926001"/><path stroke-linecap="butt" transform="matrix(0.00963548, 0, 0, -0.00962336, 61.63796, 315.374394)" fill="none" stroke-linejoin="miter" d="M 16118.284391 15484.71481 C 16132.068089 15614.20113 16146.25719 15744.093363 16176.257004 15840.700711 C 16206.66222 15936.902146 16253.283551 16000.630523 16299.904882 16064.3589 " stroke="#000000" stroke-width="76.887001" stroke-opacity="1" stroke-miterlimit="22.926001"/><path stroke-linecap="butt" transform="matrix(0.008712, 0, 0, -0.00870105, 61.63796, 315.374394)" fill="none" stroke-linejoin="miter" d="M 14744.689519 8129.336526 C 14817.774743 8195.330712 14890.411592 8261.324897 14946.906919 8326.870143 C 15002.95387 8392.864328 15042.8593 8458.409574 15082.764729 8523.954819 " stroke="#000000" stroke-width="85.039001" stroke-opacity="1" stroke-miterlimit="22.926001"/></svg>