<svg xmlns="http://www.w3.org/2000/svg" xmlns:xlink="http://www.w3.org/1999/xlink" width="500" zoomAndPan="magnify" viewBox="0 0 375 374.999991" height="500" preserveAspectRatio="xMidYMid meet" version="1.0"><path fill="#eae2d9" d="M 189.910156 374.4375 C 189.8125 374.191406 189.734375 373.722656 189.734375 373.402344 C 189.734375 372.421875 187.78125 366.914062 186.722656 364.902344 C 186.175781 363.863281 184.867188 361.851562 183.816406 360.433594 C 179.195312 354.203125 176.621094 349.449219 175.8125 345.644531 C 175.054688 342.085938 175.40625 337.933594 176.957031 332.09375 C 178.945312 324.597656 179.46875 321.664062 179.484375 317.921875 C 179.5 313.441406 178.726562 310.433594 175.46875 302.285156 C 173.652344 297.742188 173.335938 296.199219 173.496094 292.726562 C 173.664062 289.179688 174.414062 286.410156 176.765625 280.703125 C 180.578125 271.4375 182.0625 265.941406 182.054688 261.125 C 182.050781 258.539062 181.425781 254.730469 180.738281 253.078125 C 180.539062 252.605469 180.285156 251.730469 180.175781 251.132812 C 180.035156 250.390625 179.769531 249.964844 179.34375 249.796875 C 178.5625 249.492188 171.980469 248.261719 171.851562 248.398438 C 171.800781 248.453125 171.609375 249.976562 171.429688 251.789062 C 170.808594 258.023438 169.9375 260.941406 167.070312 266.378906 C 164.363281 271.519531 163.261719 272.78125 156.640625 278.328125 C 151.273438 282.828125 148.3125 286.480469 146.492188 290.832031 C 144.746094 295.007812 144.246094 298.019531 143.789062 307.042969 C 143.566406 311.421875 143.433594 312.203125 142.429688 315.058594 C 141.453125 317.835938 140.453125 319.910156 139.390625 321.355469 C 138.710938 322.285156 135.695312 325.898438 135.332031 326.222656 C 134.960938 326.554688 130.488281 332.207031 129.558594 333.523438 C 127.429688 336.535156 126.84375 339.402344 126.460938 348.695312 C 126.261719 353.519531 126.074219 355.273438 125.507812 357.570312 C 125.117188 359.144531 124.714844 361.171875 124.613281 362.074219 C 124.421875 363.738281 124.070312 364.308594 123.558594 363.796875 C 123.371094 363.609375 123.386719 363.097656 123.601562 362.304688 C 123.78125 361.640625 123.925781 359.429688 123.925781 357.394531 C 123.925781 353.546875 123.574219 351.285156 122.292969 346.980469 C 120.878906 342.222656 120.375 339.140625 120.34375 335.097656 C 120.300781 329.183594 121.355469 326.125 125.414062 320.429688 C 131.316406 312.148438 133.394531 308.464844 134.53125 304.261719 C 135.054688 302.328125 135.160156 300.871094 135.335938 293.300781 C 135.558594 283.683594 135.707031 282.804688 137.699219 279.300781 C 138.960938 277.085938 142.515625 272.714844 146.125 268.9375 C 150.632812 264.21875 154.054688 259.488281 155.753906 255.621094 C 156.796875 253.25 157.601562 249.117188 157.71875 245.527344 L 157.816406 242.558594 L 155.074219 240.804688 C 153.566406 239.839844 151.207031 238.167969 149.828125 237.085938 C 148.453125 236.007812 147.289062 235.171875 147.238281 235.226562 C 147.132812 235.34375 144.828125 238.992188 143.359375 241.371094 C 140.867188 245.402344 134.65625 250.824219 129.640625 253.351562 C 127.628906 254.363281 126.96875 254.574219 120.167969 256.351562 C 111.707031 258.566406 107.648438 260.738281 103.390625 265.34375 C 101.332031 267.566406 99.613281 270.230469 96.25 276.40625 C 92.507812 283.277344 88.480469 286.945312 81.78125 289.589844 C 80.976562 289.90625 78.113281 291.25 75.410156 292.578125 C 71.648438 294.425781 70.15625 295.320312 69.035156 296.40625 C 67.257812 298.132812 64.546875 302.394531 61.824219 307.757812 C 60.550781 310.261719 59.125 312.574219 58.027344 313.914062 C 57.058594 315.09375 55.746094 316.800781 55.109375 317.707031 C 54.472656 318.613281 53.777344 319.351562 53.566406 319.351562 C 52.988281 319.351562 53.082031 319.054688 54.109375 317.609375 C 54.621094 316.886719 55.714844 314.890625 56.542969 313.171875 C 58.050781 310.039062 58.652344 307.875 59.914062 301.039062 C 61.347656 293.25 64.109375 287.777344 68.390625 284.238281 C 69.664062 283.1875 74.570312 280.183594 77.523438 278.648438 C 80.207031 277.25 85.050781 273.949219 86.859375 272.289062 C 89.753906 269.621094 91.300781 267.222656 94.960938 259.722656 C 98.390625 252.699219 99.699219 250.890625 102.800781 248.886719 C 105.671875 247.03125 111.636719 244.308594 116 242.855469 C 119.375 241.734375 125.898438 238.152344 128.835938 235.804688 C 130.585938 234.410156 133.421875 230.910156 134.652344 228.636719 C 135.046875 227.90625 135.824219 226.539062 136.378906 225.59375 C 137.15625 224.277344 137.320312 223.773438 137.089844 223.445312 C 136.921875 223.210938 136.054688 221.824219 135.167969 220.367188 C 134.28125 218.914062 133.441406 217.722656 133.300781 217.722656 C 133.160156 217.722656 131.664062 218.792969 129.972656 220.101562 C 124.175781 224.585938 121.902344 225.796875 115.875 227.609375 C 112.53125 228.613281 112.011719 228.6875 108 228.765625 C 105.640625 228.8125 102.933594 228.730469 101.988281 228.585938 C 96.066406 227.683594 90.15625 227.734375 86.386719 228.71875 C 83.871094 229.375 80.320312 230.984375 78.101562 232.472656 C 76.972656 233.230469 74.03125 235.570312 71.5625 237.671875 C 64.546875 243.648438 60.777344 245.300781 53.035156 245.796875 C 50.832031 245.9375 48.382812 246.117188 47.59375 246.191406 C 46.808594 246.265625 45.132812 246.40625 43.875 246.5 C 40.9375 246.722656 38.558594 247.3125 36.859375 248.238281 C 34.816406 249.351562 30.8125 252.441406 27.929688 255.132812 C 25 257.867188 22.976562 259.433594 21.113281 260.414062 C 20.402344 260.789062 18.90625 261.703125 17.78125 262.453125 C 16.660156 263.199219 15.597656 263.8125 15.421875 263.8125 C 14.6875 263.8125 15.1875 262.957031 16.320312 262.285156 C 18.121094 261.210938 22.09375 257.421875 23.523438 255.410156 C 24.210938 254.441406 25.699219 252.109375 26.835938 250.230469 C 31.769531 242.042969 35.667969 238.296875 41.441406 236.199219 C 42.839844 235.691406 45.828125 235.078125 50.027344 234.433594 C 63.464844 232.375 66.074219 231.15625 74.695312 222.933594 C 79.726562 218.136719 81.214844 217.007812 84.035156 215.863281 C 86.476562 214.871094 91.972656 214.246094 98.160156 214.257812 C 102.703125 214.265625 104.316406 214.164062 109.148438 213.542969 C 114.621094 212.839844 120.585938 210.175781 123.441406 207.15625 C 123.90625 206.667969 124.421875 206.261719 124.585938 206.257812 C 124.753906 206.25 125.585938 205.625 126.429688 204.867188 L 127.972656 203.484375 L 127.351562 200.796875 C 127.011719 199.320312 126.578125 197.089844 126.386719 195.84375 L 126.039062 193.574219 L 124.320312 193.039062 C 123.375 192.746094 121.828125 192.253906 120.882812 191.941406 C 116.09375 190.363281 112.195312 190.175781 106.84375 191.257812 C 102.433594 192.152344 100.328125 192.78125 96.40625 194.390625 C 93.503906 195.582031 89.828125 196.824219 86.242188 197.832031 C 83.859375 198.5 80.46875 198.6875 78.3125 198.269531 C 76.480469 197.914062 73.53125 196.847656 67.347656 194.316406 C 62.171875 192.195312 60.347656 191.808594 55.609375 191.832031 C 51.859375 191.851562 51.171875 191.949219 44.875 193.355469 C 35.5 195.453125 34.554688 195.578125 31.269531 195.160156 C 26.496094 194.558594 23.039062 193.011719 17.679688 189.082031 C 16.183594 187.984375 13.992188 186.382812 12.8125 185.519531 C 9.152344 182.851562 5.070312 181.019531 0.695312 180.082031 C 0.234375 179.984375 -0.0585938 179.761719 0.0117188 179.5625 C 0.148438 179.164062 1.023438 179.214844 3.648438 179.777344 C 4.671875 180 6.414062 180.324219 7.515625 180.5 C 9.484375 180.8125 11.222656 181.363281 16.960938 183.492188 C 20.75 184.898438 25.144531 185.941406 27.269531 185.941406 C 29.25 185.941406 32.125 185.210938 39.089844 182.941406 C 49.234375 179.636719 52.167969 179.65625 62.289062 183.078125 C 69.304688 185.449219 71.628906 185.945312 75.746094 185.941406 C 81.046875 185.9375 84.875 184.734375 93.113281 180.492188 C 96.105469 178.949219 99.433594 177.421875 100.507812 177.09375 C 101.582031 176.769531 104.367188 176.300781 106.691406 176.058594 C 111.777344 175.527344 115.878906 175.808594 119.789062 176.957031 C 126.953125 179.058594 126.304688 179.109375 126.617188 176.421875 C 126.726562 175.496094 126.972656 174.050781 127.167969 173.210938 L 127.523438 171.679688 L 126.382812 170.722656 C 125.753906 170.199219 125.019531 169.640625 124.753906 169.480469 C 124.488281 169.324219 123.703125 168.726562 123.007812 168.15625 C 119.71875 165.449219 115.824219 163.695312 111.378906 162.910156 C 109.929688 162.652344 108.316406 162.367188 107.800781 162.277344 C 107.28125 162.183594 103.691406 162.078125 99.824219 162.039062 C 87.449219 161.921875 84.6875 161.449219 80.554688 158.75 C 79.390625 157.992188 77.167969 156.160156 75.613281 154.679688 C 68.433594 147.847656 66.792969 146.679688 61.875 144.917969 C 60.039062 144.257812 55.425781 143.292969 52.03125 142.859375 C 51.324219 142.769531 50.421875 142.640625 50.027344 142.570312 C 49.636719 142.503906 48.796875 142.378906 48.167969 142.296875 C 42.285156 141.53125 40.59375 141.027344 37.019531 138.984375 C 34.8125 137.722656 31.804688 134.929688 29.808594 132.289062 C 29.222656 131.515625 27.589844 129.066406 26.175781 126.847656 C 22.078125 120.410156 19.867188 117.953125 15.878906 115.402344 C 14.96875 114.820312 14.300781 114.222656 14.394531 114.070312 C 14.679688 113.613281 15.074219 113.753906 17.054688 115.03125 C 18.105469 115.710938 19.542969 116.578125 20.25 116.964844 C 22.445312 118.160156 24.597656 119.757812 27.105469 122.046875 C 32.40625 126.882812 36.695312 129.621094 39.945312 130.25 C 41.234375 130.496094 44.667969 130.742188 52.460938 131.136719 C 57.164062 131.375 59.472656 131.863281 62.644531 133.289062 C 66.160156 134.867188 66.664062 135.203125 71.070312 138.894531 C 77.046875 143.902344 78.824219 145.054688 83.175781 146.742188 C 86.210938 147.917969 87.265625 148.125 91.324219 148.335938 C 94.429688 148.492188 98.445312 148.238281 101.449219 147.695312 C 103.351562 147.347656 107.285156 147.097656 109.230469 147.203125 C 112.410156 147.367188 118.460938 149.003906 122.238281 150.714844 C 123.847656 151.445312 128.589844 154.425781 129.042969 154.992188 C 129.320312 155.335938 132.523438 157.652344 132.589844 157.554688 C 132.628906 157.5 133.382812 156.167969 134.265625 154.59375 C 135.148438 153.019531 136.703125 150.574219 137.722656 149.15625 L 139.574219 146.578125 L 139.164062 145.585938 C 138.941406 145.042969 138.664062 144.527344 138.550781 144.441406 C 138.4375 144.359375 138.082031 143.644531 137.757812 142.855469 C 136.445312 139.675781 132.988281 135.203125 130.523438 133.496094 C 126.601562 130.78125 123.53125 128.863281 121.742188 128 C 120.640625 127.46875 118.253906 126.320312 116.433594 125.453125 C 111.03125 122.863281 107.726562 120.757812 105.679688 118.589844 C 103.542969 116.324219 102.328125 114.050781 99.988281 107.929688 C 95.859375 97.113281 94.441406 95.511719 81.089844 86.585938 C 76.46875 83.492188 75.054688 82.269531 73.359375 79.878906 C 70.453125 75.773438 68.917969 70.863281 68.214844 63.414062 C 67.640625 57.292969 66.148438 52.011719 64.058594 48.714844 C 63.585938 47.972656 63.199219 47.171875 63.199219 46.941406 C 63.199219 46.003906 63.976562 46.640625 65.046875 48.460938 C 65.671875 49.519531 66.652344 51.03125 67.226562 51.820312 C 68.707031 53.84375 69.855469 56.0625 71.4375 59.9375 C 73.546875 65.109375 75.628906 68.695312 77.792969 70.871094 C 79.617188 72.703125 82.433594 74.464844 89.632812 78.273438 C 93.179688 80.148438 94.972656 81.394531 96.84375 83.277344 C 99.722656 86.171875 100.828125 87.910156 103.796875 94.230469 C 107.058594 101.175781 108.058594 102.792969 110.964844 105.847656 C 114.445312 109.496094 118.441406 111.792969 125.320312 114.09375 C 131.34375 116.105469 133.207031 116.863281 135.054688 118.0625 C 139.023438 120.628906 144.140625 125.523438 146.25 128.777344 C 146.847656 129.691406 147.949219 131.65625 148.699219 133.144531 C 149.453125 134.628906 150.171875 135.84375 150.300781 135.84375 C 150.425781 135.84375 151.15625 135.359375 151.917969 134.769531 C 152.679688 134.179688 154.09375 133.210938 155.058594 132.621094 L 156.816406 131.542969 L 156.652344 129.902344 C 156.300781 126.355469 155.289062 121.90625 154.386719 119.929688 C 152.5 115.800781 149.195312 111.386719 143.921875 105.925781 C 139.558594 101.414062 136.152344 97.175781 135.167969 95.046875 C 133.78125 92.039062 133.578125 90.609375 133.339844 82.164062 C 133.152344 75.433594 133.019531 73.792969 132.519531 71.921875 C 131.371094 67.617188 129.261719 63.949219 123.003906 55.363281 C 116.929688 47.035156 116.246094 41.691406 119.5625 28.617188 C 120.914062 23.300781 121.121094 21.628906 120.917969 17.777344 C 120.8125 15.875 120.652344 13.753906 120.558594 13.0625 C 120.292969 11.128906 121.085938 11.6875 121.550781 13.761719 C 121.757812 14.695312 122.253906 16.878906 122.65625 18.609375 C 123.214844 21.015625 123.441406 23.042969 123.625 27.199219 C 124.105469 37.980469 124.929688 40.3125 130.503906 46.664062 C 137.078125 54.160156 138.390625 55.964844 139.679688 59.277344 C 141.195312 63.183594 141.261719 63.574219 141.921875 72.726562 C 142.285156 77.765625 142.921875 80.738281 144.414062 84.304688 C 146.195312 88.570312 149.351562 92.503906 154.066406 96.335938 C 161.421875 102.3125 162.878906 103.910156 165.597656 108.941406 C 168.410156 114.148438 169.449219 117.390625 169.992188 122.628906 C 170.148438 124.128906 170.339844 125.417969 170.417969 125.496094 C 170.5 125.578125 171.753906 125.359375 173.207031 125.015625 C 176.148438 124.320312 180.96875 123.53125 182.285156 123.53125 C 182.984375 123.53125 183.171875 123.390625 183.3125 122.746094 C 183.40625 122.3125 183.785156 121.25 184.152344 120.382812 C 186.601562 114.601562 186.078125 106.386719 182.65625 96.910156 C 179.367188 87.796875 178.417969 83.757812 178.648438 79.867188 C 178.820312 77.015625 179.355469 75.398438 182.429688 68.421875 C 184.945312 62.726562 185.71875 60.097656 185.917969 56.558594 C 186.128906 52.851562 185.8125 50.300781 184.109375 41.941406 C 182.898438 36 182.8125 35.277344 182.96875 32.636719 C 183.0625 31.0625 183.328125 29.078125 183.558594 28.226562 C 184.476562 24.875 187.367188 19.796875 190.539062 15.984375 C 195.328125 10.21875 197.636719 6.132812 198.746094 1.433594 C 198.957031 0.542969 199.238281 0 199.492188 0 C 199.972656 0 199.953125 0.234375 199.152344 3.867188 C 197.808594 9.957031 197.332031 11.578125 195.859375 15.082031 C 193.636719 20.355469 192.847656 23.222656 192.679688 26.625 C 192.523438 29.808594 192.496094 29.679688 195.296875 39.335938 C 197.378906 46.503906 197.65625 48.359375 197.214844 52.148438 C 196.8125 55.609375 196.535156 56.597656 194.167969 62.984375 C 191.875 69.171875 191.410156 71.390625 191.371094 76.296875 C 191.339844 80 191.382812 80.304688 192.410156 83.597656 C 193.066406 85.707031 194.582031 89.296875 196.332031 92.902344 C 199.988281 100.421875 200.414062 102.164062 200.441406 109.648438 C 200.464844 115.269531 200.296875 116.390625 198.726562 121.222656 C 198.191406 122.863281 197.789062 124.230469 197.824219 124.257812 C 197.863281 124.285156 199.621094 124.734375 201.730469 125.253906 L 205.5625 126.195312 L 206.8125 124.792969 C 208.730469 122.644531 211.199219 118.84375 212.066406 116.707031 C 212.496094 115.648438 213.058594 113.757812 213.308594 112.503906 C 213.5625 111.246094 213.914062 109.511719 214.089844 108.644531 C 214.265625 107.78125 214.515625 103.652344 214.644531 99.46875 C 215.066406 86.050781 215.863281 83.460938 221.355469 77.742188 C 228.8125 69.980469 229.816406 68.785156 231.308594 65.851562 C 233.191406 62.15625 234.078125 58.640625 235.675781 48.527344 C 236.546875 43.015625 237.71875 39.953125 240.230469 36.613281 C 242.421875 33.695312 245.3125 31.457031 252.421875 27.175781 C 256.351562 24.808594 257.570312 23.902344 259.75 21.726562 C 261.1875 20.289062 262.789062 18.453125 263.3125 17.644531 C 264.28125 16.15625 264.5625 15.941406 264.890625 16.46875 C 265.054688 16.738281 264.355469 17.890625 260.484375 23.742188 C 259.765625 24.832031 258.023438 26.957031 256.621094 28.464844 C 249.886719 35.699219 247.90625 39.074219 247.445312 44.089844 C 247.097656 47.902344 246.972656 49.414062 246.695312 53.234375 C 246.535156 55.429688 246.21875 58.136719 245.992188 59.246094 C 245.507812 61.621094 242.617188 67.609375 241.203125 69.171875 C 240.6875 69.742188 239.609375 70.96875 238.804688 71.894531 C 238 72.820312 236.664062 74.347656 235.832031 75.292969 C 232.914062 78.605469 230.570312 82.796875 229.253906 87.066406 C 228.386719 89.875 228.171875 96.613281 228.785156 101.730469 C 229.628906 108.765625 229.28125 112.609375 227.246094 118.667969 C 226.003906 122.355469 223.351562 127.210938 221.453125 129.257812 C 220.554688 130.230469 218.9375 132.3125 218.9375 132.496094 C 218.9375 132.578125 219.421875 132.941406 220.011719 133.300781 C 221.78125 134.378906 226.722656 138.28125 228.0625 139.660156 C 229.214844 140.84375 229.378906 140.925781 230.066406 140.632812 C 230.480469 140.457031 231.011719 140.160156 231.246094 139.976562 C 231.484375 139.789062 232.1875 139.472656 232.816406 139.269531 C 234.53125 138.71875 238.339844 136.359375 240.171875 134.714844 C 241.980469 133.09375 245.703125 128.195312 247.472656 125.109375 C 248.105469 124.003906 249.476562 121.363281 250.519531 119.238281 C 253.949219 112.261719 257.046875 108.058594 260.339844 105.929688 C 261.765625 105.003906 264.785156 103.746094 270.613281 101.652344 C 279.511719 98.449219 282.359375 95.953125 290.46875 84.265625 C 296.488281 75.582031 300.851562 73.050781 311.835938 71.859375 C 320.058594 70.972656 321.273438 70.789062 323.257812 70.15625 C 325.921875 69.308594 328.203125 68.332031 329.4375 67.511719 C 330.582031 66.75 331.160156 66.667969 331.160156 67.265625 C 331.160156 67.496094 330.550781 68.035156 329.800781 68.464844 C 329.054688 68.894531 327.28125 69.972656 325.863281 70.855469 C 322.71875 72.820312 321.0625 73.625 316.988281 75.179688 C 312.839844 76.765625 308.765625 78.917969 306.867188 80.527344 C 305.136719 82 303.558594 84.324219 299.527344 91.328125 C 297.988281 94.003906 296.085938 97.003906 295.300781 97.996094 C 293.058594 100.828125 288.59375 103.996094 284.664062 105.542969 C 283.867188 105.859375 282.535156 106.425781 281.703125 106.808594 C 280.867188 107.1875 280.128906 107.5 280.0625 107.5 C 279.890625 107.5 275.902344 109.449219 275.191406 109.875 C 272.808594 111.316406 268.960938 114.6875 267.605469 116.515625 C 265.8125 118.945312 263.175781 124.28125 261.734375 128.398438 C 259.394531 135.085938 258.570312 136.597656 254.894531 140.964844 C 253.085938 143.117188 249.898438 146.003906 247.347656 147.800781 C 246.457031 148.433594 244.777344 149.300781 240.527344 151.335938 L 238.5 152.304688 L 240.164062 155.296875 C 241.082031 156.941406 241.863281 158.378906 241.90625 158.492188 C 242.058594 158.894531 243.984375 158.84375 249.421875 158.296875 C 253.214844 157.917969 256.40625 156.601562 261.085938 153.496094 C 264.621094 151.152344 266.222656 149.847656 269.894531 146.324219 C 274.421875 141.984375 279.054688 138.683594 282.207031 137.550781 C 283.953125 136.925781 284.632812 136.875 293.226562 136.691406 C 301.097656 136.523438 302.671875 136.414062 304.394531 135.929688 C 308.4375 134.785156 310.910156 133.488281 317.484375 129.066406 C 325.601562 123.613281 327.082031 122.855469 331.019531 122.160156 C 334.746094 121.503906 341.128906 122.246094 346.714844 123.984375 C 351.0625 125.339844 353.972656 125.824219 357.773438 125.820312 C 359.746094 125.820312 361.863281 125.683594 362.472656 125.511719 C 363.261719 125.292969 363.667969 125.292969 363.890625 125.515625 C 364.417969 126.042969 363.769531 126.339844 361.078125 126.800781 C 359.660156 127.042969 357.597656 127.4375 356.496094 127.679688 C 355.300781 127.941406 352.246094 128.179688 348.910156 128.277344 C 342.75 128.453125 338.726562 128.957031 336.28125 129.855469 C 334.542969 130.492188 331.382812 132.757812 326.253906 137.042969 C 320.433594 141.902344 318.113281 143.238281 313.496094 144.402344 C 310.761719 145.089844 309.605469 145.214844 303.964844 145.441406 C 299.429688 145.625 299.050781 145.660156 296.121094 146.179688 C 294.0625 146.542969 289.375 148.210938 287.765625 149.152344 C 285.90625 150.246094 281.578125 153.941406 279.839844 155.929688 C 278.964844 156.925781 277.242188 158.90625 276.007812 160.328125 C 272.398438 164.480469 270.222656 166.179688 265.457031 168.554688 C 260.320312 171.121094 256.417969 172.089844 248.980469 172.648438 L 246.820312 172.8125 L 247.183594 174.867188 C 247.378906 176 247.550781 177.246094 247.558594 177.640625 C 247.589844 179.007812 247.835938 179.074219 250.289062 178.359375 C 251.546875 177.992188 253.710938 177.359375 255.101562 176.953125 C 259.019531 175.808594 263.121094 175.527344 268.199219 176.058594 C 270.523438 176.300781 273.308594 176.769531 274.382812 177.09375 C 275.457031 177.421875 278.785156 178.949219 281.777344 180.492188 C 290.015625 184.734375 293.847656 185.9375 299.144531 185.941406 C 303.261719 185.945312 305.585938 185.449219 312.601562 183.078125 C 322.722656 179.65625 325.65625 179.636719 335.800781 182.941406 C 342.765625 185.210938 345.644531 185.941406 347.621094 185.941406 C 349.746094 185.941406 354.140625 184.898438 357.929688 183.492188 C 363.667969 181.363281 365.40625 180.8125 367.375 180.496094 C 368.476562 180.324219 370.21875 180 371.242188 179.777344 C 373.867188 179.214844 374.742188 179.164062 374.882812 179.5625 C 374.949219 179.761719 374.65625 179.984375 374.195312 180.082031 C 369.820312 181.019531 365.738281 182.851562 362.078125 185.519531 C 360.898438 186.382812 358.707031 187.984375 357.210938 189.082031 C 351.851562 193.011719 348.394531 194.558594 343.621094 195.160156 C 340.335938 195.578125 339.390625 195.453125 330.015625 193.355469 C 323.71875 191.949219 323.03125 191.851562 319.28125 191.832031 C 314.542969 191.808594 312.71875 192.195312 307.542969 194.316406 C 294.957031 199.472656 293.917969 199.566406 284.210938 196.488281 C 282.714844 196.011719 280.136719 195.070312 278.484375 194.390625 C 276.832031 193.714844 274.625 192.898438 273.578125 192.578125 C 270.351562 191.585938 264.523438 190.523438 262.320312 190.523438 C 259.972656 190.523438 256.25 191.15625 254.039062 191.933594 C 253.234375 192.214844 251.570312 192.75 250.339844 193.117188 C 249.109375 193.484375 248.050781 193.871094 247.984375 193.976562 C 247.917969 194.085938 247.667969 195.445312 247.429688 197 C 247.191406 198.554688 246.914062 200.117188 246.816406 200.472656 C 246.660156 201.042969 246.75 201.121094 247.605469 201.152344 C 248.132812 201.171875 248.824219 201.222656 249.140625 201.265625 C 249.453125 201.304688 250.9375 201.421875 252.433594 201.523438 C 257.828125 201.882812 261.324219 202.824219 266.316406 205.265625 C 271.976562 208.027344 272.425781 208.402344 280.269531 216.929688 C 283.144531 220.054688 286.867188 223.179688 289.015625 224.273438 C 290.597656 225.082031 294.542969 226.535156 296.09375 226.882812 C 298.117188 227.335938 299.34375 227.445312 304.105469 227.601562 C 311.519531 227.84375 312.605469 227.953125 315.4375 228.746094 C 319.738281 229.949219 321.746094 231.101562 327.152344 235.472656 C 334.136719 241.117188 336.898438 242.863281 339.617188 243.355469 C 340.242188 243.46875 341.007812 243.617188 341.324219 243.6875 C 341.640625 243.753906 345.308594 243.925781 349.484375 244.066406 C 353.65625 244.210938 357.585938 244.445312 358.214844 244.59375 C 359.703125 244.941406 362.144531 245.414062 363.917969 245.695312 C 364.691406 245.820312 365.371094 246.054688 365.425781 246.21875 C 365.492188 246.421875 363.925781 246.492188 360.582031 246.441406 C 355.109375 246.355469 354.835938 246.398438 347.621094 248.5 C 339.597656 250.839844 334.246094 251.214844 329.585938 249.769531 C 326.84375 248.917969 325.957031 248.441406 320.855469 245.070312 C 312.75 239.722656 311.273438 238.886719 307.972656 237.789062 C 304.269531 236.558594 302.03125 236.347656 294.660156 236.511719 C 285.09375 236.726562 283.15625 236.34375 278.703125 233.363281 C 277.246094 232.386719 275.792969 231.371094 275.476562 231.109375 C 275.164062 230.84375 274.445312 230.269531 273.882812 229.828125 C 273.320312 229.390625 271.582031 227.847656 270.019531 226.402344 C 266.886719 223.503906 266.578125 223.253906 263.882812 221.382812 C 259.226562 218.148438 255.324219 216.285156 252.289062 215.851562 C 251.5 215.734375 250.601562 215.59375 250.285156 215.535156 C 249.96875 215.476562 248.039062 215.351562 245.992188 215.257812 C 243.945312 215.164062 242.171875 215.027344 242.054688 214.957031 C 241.933594 214.882812 241.707031 215.175781 241.542969 215.601562 C 241.078125 216.824219 238.179688 221.671875 236.628906 223.824219 C 235.492188 225.398438 235.285156 225.859375 235.558594 226.1875 C 235.746094 226.410156 236.015625 226.597656 236.164062 226.597656 C 236.308594 226.597656 237.097656 227.023438 237.917969 227.542969 C 238.734375 228.066406 239.621094 228.570312 239.882812 228.667969 C 241.402344 229.242188 245.507812 232.363281 247.601562 234.539062 C 252.71875 239.855469 255.089844 243.8125 256.742188 249.785156 C 258.398438 255.785156 259.359375 258.484375 260.972656 261.664062 C 262.316406 264.308594 262.984375 265.242188 265.15625 267.492188 C 268.25 270.691406 270.683594 272.347656 277.277344 275.730469 C 281.277344 277.785156 282.710938 278.691406 284.753906 280.464844 C 288.019531 283.296875 289.144531 285.023438 293.679688 294.136719 C 297.074219 300.960938 297.472656 301.628906 299.023438 303.058594 C 300.957031 304.847656 305.6875 307.714844 309.488281 309.398438 C 312.527344 310.75 315.125 312.285156 317.5625 314.171875 C 318.507812 314.902344 319.957031 315.949219 320.78125 316.496094 C 321.609375 317.042969 322.285156 317.59375 322.285156 317.714844 C 322.285156 318.234375 321.351562 318.238281 320.769531 317.714844 C 319.945312 316.976562 317.824219 315.828125 315.117188 314.65625 C 313.050781 313.761719 309.835938 313.003906 304.105469 312.070312 C 296.890625 310.890625 292.988281 309.382812 289.308594 306.347656 C 286.777344 304.261719 285.597656 302.726562 282.355469 297.308594 C 276.671875 287.816406 274.359375 284.953125 270.296875 282.355469 C 268.679688 281.324219 261.644531 277.839844 261.171875 277.839844 C 260.816406 277.839844 256.417969 275.632812 255.296875 274.890625 C 253.445312 273.667969 251.378906 271.621094 250.316406 269.96875 C 248.777344 267.570312 246.472656 262.867188 244.957031 259.019531 C 242.386719 252.507812 238.804688 246.503906 235.726562 243.550781 C 233.957031 241.847656 229.722656 238.90625 229.050781 238.90625 C 228.863281 238.90625 228.53125 238.726562 228.3125 238.507812 C 228.09375 238.289062 227.238281 237.765625 226.40625 237.34375 L 224.902344 236.582031 L 222.851562 238.113281 C 221.722656 238.957031 220.3125 239.945312 219.71875 240.304688 L 218.640625 240.960938 L 220.089844 242.726562 C 225.054688 248.75 226.996094 252.214844 228.859375 258.371094 C 229.910156 261.851562 229.941406 262.078125 229.941406 266.390625 C 229.941406 268.828125 229.832031 273.144531 229.695312 275.980469 C 229.332031 283.625 229.773438 286.300781 232.246094 291.441406 C 233.753906 294.582031 235.308594 296.730469 238.953125 300.710938 C 243.164062 305.3125 244.285156 306.804688 245.699219 309.691406 C 247.320312 313.003906 248.0625 315.90625 248.414062 320.328125 C 249.234375 330.667969 249.609375 332.917969 250.964844 335.597656 C 252 337.640625 255.738281 342.355469 258.289062 344.832031 C 260.664062 347.136719 262.574219 349.519531 264.132812 352.132812 C 264.792969 353.234375 265.789062 354.742188 266.347656 355.488281 C 267.277344 356.726562 267.414062 357.425781 266.734375 357.425781 C 266.585938 357.425781 266.140625 356.910156 265.738281 356.273438 C 263.761719 353.144531 258.960938 349.105469 254.007812 346.410156 C 243.4375 340.660156 239.195312 335.535156 237.671875 326.683594 C 234.78125 309.84375 233.988281 308.113281 224.941406 298.882812 C 217.820312 291.621094 217.066406 290.246094 216.207031 282.992188 C 215.972656 281.023438 215.710938 277.160156 215.625 274.40625 C 215.414062 267.558594 214.332031 261.132812 212.808594 257.6875 C 211.957031 255.761719 208.828125 251.128906 207.878906 250.378906 C 207.503906 250.085938 207.195312 249.734375 207.191406 249.601562 C 207.175781 249.191406 205.515625 247.492188 205.128906 247.496094 C 204.929688 247.496094 203.285156 247.871094 201.472656 248.324219 C 199.664062 248.78125 197.4375 249.25 196.53125 249.359375 C 195.625 249.472656 194.816406 249.667969 194.738281 249.792969 C 194.660156 249.921875 194.804688 250.839844 195.058594 251.835938 C 197.109375 259.910156 197.246094 261.507812 196.460938 268.25 C 195.820312 273.769531 195.171875 275.464844 190.554688 283.753906 C 186.929688 290.265625 185.453125 295.734375 185.816406 301.316406 C 186 304.082031 187.085938 308.507812 189.023438 314.339844 C 190.257812 318.0625 190.363281 318.617188 190.507812 322.09375 C 190.683594 326.265625 190.273438 329.0625 188.988281 332.472656 C 188 335.105469 186.207031 340.453125 185.28125 343.539062 C 184.613281 345.761719 184.53125 346.421875 184.683594 348.40625 C 184.878906 350.984375 186.203125 356.03125 188.136719 361.578125 C 189.003906 364.066406 189.53125 366.15625 189.726562 367.875 C 189.886719 369.292969 190.203125 371.347656 190.433594 372.4375 C 190.664062 373.527344 190.785156 374.527344 190.707031 374.65625 C 190.472656 375.03125 190.097656 374.929688 189.910156 374.4375 Z M 188.328125 365.128906 C 188.078125 364.496094 188.054688 364.488281 188.035156 365.039062 C 188.027344 365.367188 188.105469 365.722656 188.210938 365.824219 C 188.550781 366.167969 188.609375 365.828125 188.328125 365.128906 Z M 125.207031 353.785156 C 124.917969 353.492188 124.675781 353.929688 124.917969 354.316406 C 125.097656 354.609375 125.164062 354.609375 125.261719 354.316406 C 125.328125 354.117188 125.304688 353.878906 125.207031 353.78125 Z M 261.019531 349.269531 C 260.820312 349.023438 260.589844 348.890625 260.511719 348.96875 C 260.429688 349.046875 260.53125 349.3125 260.734375 349.554688 C 260.9375 349.800781 261.167969 349.933594 261.246094 349.855469 C 261.324219 349.777344 261.222656 349.511719 261.019531 349.269531 Z M 313.539062 312.648438 C 313.238281 312.425781 312.875 312.316406 312.738281 312.398438 C 312.441406 312.585938 313.105469 313.042969 313.679688 313.050781 C 313.972656 313.050781 313.929688 312.933594 313.539062 312.648438 Z M 59.125 310.601562 C 59.027344 310.507812 58.796875 310.730469 58.605469 311.097656 C 58.28125 311.734375 58.285156 311.742188 58.78125 311.269531 C 59.066406 311 59.21875 310.699219 59.125 310.601562 Z M 24.199219 256.988281 C 24.414062 256.351562 23.753906 256.660156 23.242188 257.441406 L 22.726562 258.226562 L 23.40625 257.773438 C 23.78125 257.527344 24.140625 257.171875 24.199219 256.988281 Z M 22.523438 119.445312 C 22.457031 119.398438 22.144531 119.175781 21.828125 118.941406 C 21.300781 118.554688 21.285156 118.558594 21.648438 119.023438 C 21.867188 119.300781 22.175781 119.523438 22.34375 119.523438 C 22.507812 119.523438 22.585938 119.488281 22.523438 119.445312 Z M 322.574219 71.691406 L 323.289062 71.105469 L 322.574219 71.457031 C 322.179688 71.652344 321.824219 71.789062 321.785156 71.765625 C 321.507812 71.574219 320.855469 71.773438 321 72 C 321.265625 72.4375 321.78125 72.335938 322.574219 71.691406 Z M 68.167969 54.96875 C 68.078125 54.730469 67.953125 54.539062 67.890625 54.539062 C 67.828125 54.539062 67.777344 54.730469 67.777344 54.96875 C 67.777344 55.203125 67.902344 55.398438 68.054688 55.398438 C 68.207031 55.398438 68.257812 55.203125 68.167969 54.96875 Z M 259.304688 23.835938 C 259.304688 23.675781 259.113281 23.707031 258.875 23.90625 C 258.636719 24.101562 258.445312 24.390625 258.445312 24.546875 C 258.445312 24.707031 258.632812 24.675781 258.875 24.476562 C 259.109375 24.28125 259.304688 23.992188 259.304688 23.835938 Z M 122.082031 21.277344 C 121.992188 21.046875 121.921875 21.113281 121.910156 21.449219 C 121.894531 21.75 121.964844 21.917969 122.058594 21.824219 C 122.15625 21.730469 122.164062 21.480469 122.082031 21.277344 Z M 197.179688 8.875 C 197.179688 8.640625 197.128906 8.445312 197.066406 8.445312 C 197.003906 8.445312 196.878906 8.640625 196.789062 8.875 C 196.699219 9.113281 196.75 9.304688 196.902344 9.304688 C 197.054688 9.304688 197.179688 9.113281 197.179688 8.875 Z M 197.179688 8.875 " fill-opacity="1" fill-rule="nonzero"/></svg>