<svg xmlns="http://www.w3.org/2000/svg" xmlns:xlink="http://www.w3.org/1999/xlink" width="500" zoomAndPan="magnify" viewBox="0 0 375 374.999991" height="500" preserveAspectRatio="xMidYMid meet" version="1.0"><defs><clipPath id="6122b95a95"><path d="M 51 33 L 336 33 L 336 354.234375 L 51 354.234375 Z M 51 33 " clip-rule="nonzero"/></clipPath><clipPath id="3f10a2c9a1"><path d="M 119 20.484375 L 320 20.484375 L 320 300 L 119 300 Z M 119 20.484375 " clip-rule="nonzero"/></clipPath></defs><g clip-path="url(#6122b95a95)"><path fill="#ee1d52" d="M 51.1875 306.527344 L 52.28125 309.621094 C 52.140625 309.269531 51.742188 308.183594 51.1875 306.527344 Z M 94.546875 236.371094 C 96.472656 219.738281 103.007812 210.421875 115.320312 200.875 C 132.941406 187.945312 154.949219 195.257812 154.949219 195.257812 L 154.949219 151.867188 C 160.308594 151.726562 165.640625 152.054688 170.945312 152.859375 L 170.945312 208.699219 C 170.945312 208.699219 148.941406 201.382812 131.324219 214.320312 C 119.015625 223.863281 112.46875 233.183594 110.550781 249.816406 C 110.488281 258.847656 112.113281 270.65625 119.589844 280.867188 C 117.742188 279.875 115.859375 278.75 113.9375 277.484375 C 97.46875 265.9375 94.46875 248.613281 94.546875 236.371094 Z M 261.816406 71.636719 C 249.695312 57.769531 245.113281 43.769531 243.457031 33.933594 L 258.703125 33.933594 C 258.703125 33.933594 255.664062 59.722656 277.820312 85.082031 L 278.125 85.421875 C 272.132812 81.488281 266.695312 76.890625 261.816406 71.636719 Z M 335.265625 110.949219 L 335.265625 165.667969 C 335.265625 165.667969 315.808594 164.871094 301.410156 161.046875 C 281.308594 155.699219 268.386719 147.496094 268.386719 147.496094 C 268.386719 147.496094 259.457031 141.644531 258.738281 141.238281 L 258.738281 254.230469 C 258.738281 260.519531 257.085938 276.234375 252.054688 289.335938 C 245.488281 306.480469 235.351562 317.730469 233.488281 320.03125 C 233.488281 320.03125 221.160156 335.242188 199.414062 345.484375 C 179.808594 354.726562 162.597656 354.492188 157.453125 354.726562 C 157.453125 354.726562 127.703125 355.957031 100.929688 337.789062 C 95.128906 333.777344 89.746094 329.261719 84.785156 324.246094 L 84.921875 324.34375 C 111.699219 342.511719 141.445312 341.28125 141.445312 341.28125 C 146.597656 341.046875 163.808594 341.28125 183.402344 332.039062 C 205.132812 321.796875 217.480469 306.585938 217.480469 306.585938 C 219.324219 304.285156 229.507812 293.035156 236.046875 275.886719 C 241.066406 262.789062 242.726562 247.070312 242.726562 240.777344 L 242.726562 127.796875 C 243.449219 128.214844 252.371094 134.0625 252.371094 134.0625 C 252.371094 134.0625 265.296875 142.273438 285.402344 147.617188 C 299.808594 151.441406 319.257812 152.234375 319.257812 152.234375 L 319.257812 109.359375 C 325.910156 110.917969 331.585938 111.339844 335.265625 110.949219 Z M 335.265625 110.949219 " fill-opacity="1" fill-rule="nonzero"/></g><path fill="#000000" d="M 319.265625 109.359375 L 319.265625 152.222656 C 319.265625 152.222656 299.8125 151.425781 285.410156 147.601562 C 265.304688 142.253906 252.375 134.050781 252.375 134.050781 C 252.375 134.050781 243.457031 128.199219 242.734375 127.785156 L 242.734375 240.789062 C 242.734375 247.082031 241.085938 262.800781 236.054688 275.898438 C 229.484375 293.046875 219.351562 304.300781 217.484375 306.601562 C 217.484375 306.601562 205.152344 321.8125 183.410156 332.054688 C 163.8125 341.292969 146.601562 341.058594 141.453125 341.292969 C 141.453125 341.292969 111.707031 342.523438 84.925781 324.359375 L 84.792969 324.257812 C 81.964844 321.398438 79.308594 318.382812 76.824219 315.21875 C 68.277344 304.339844 63.039062 291.476562 61.722656 287.804688 C 61.71875 287.789062 61.71875 287.773438 61.722656 287.757812 C 59.605469 281.382812 55.15625 266.0625 55.761719 251.226562 C 56.839844 225.050781 65.65625 208.984375 67.988281 204.960938 C 74.210938 193.902344 82.125 184.226562 91.730469 175.9375 C 100.199219 168.789062 109.601562 163.214844 119.9375 159.222656 C 125.484375 156.894531 131.203125 155.109375 137.09375 153.875 C 142.980469 152.636719 148.933594 151.96875 154.949219 151.867188 L 154.949219 195.257812 C 154.949219 195.257812 132.941406 187.972656 115.328125 200.875 C 103.011719 210.421875 96.480469 219.738281 94.554688 236.371094 C 94.476562 248.613281 97.476562 265.9375 113.929688 277.488281 C 115.851562 278.761719 117.734375 279.886719 119.582031 280.871094 C 122.476562 284.800781 125.929688 288.15625 129.941406 290.933594 C 146.015625 301.558594 159.484375 302.300781 176.710938 295.402344 C 188.195312 290.789062 196.839844 280.390625 200.847656 268.871094 C 203.367188 261.675781 203.335938 254.4375 203.335938 246.949219 L 203.335938 33.933594 L 243.421875 33.933594 C 245.082031 43.769531 249.664062 57.769531 261.785156 71.636719 C 266.664062 76.890625 272.101562 81.488281 278.09375 85.421875 C 279.855469 87.328125 288.875 96.75 300.457031 102.53125 C 306.460938 105.53125 312.730469 107.808594 319.265625 109.359375 Z M 319.265625 109.359375 " fill-opacity="1" fill-rule="nonzero"/><path fill="#69c9d0" d="M 45.765625 274.480469 L 45.765625 274.515625 L 46.757812 277.328125 C 46.644531 277 46.273438 276.003906 45.765625 274.480469 Z M 45.765625 274.480469 " fill-opacity="1" fill-rule="nonzero"/><path fill="#69c9d0" d="M 119.9375 159.222656 C 109.601562 163.214844 100.199219 168.789062 91.730469 175.9375 C 82.121094 184.246094 74.210938 193.941406 67.996094 205.019531 C 65.664062 209.03125 56.84375 225.113281 55.769531 251.289062 C 55.160156 266.125 59.609375 281.441406 61.730469 287.820312 C 61.726562 287.835938 61.726562 287.851562 61.730469 287.867188 C 63.066406 291.503906 68.285156 304.367188 76.828125 315.277344 C 79.3125 318.445312 81.96875 321.457031 84.800781 324.316406 C 75.691406 318.015625 67.699219 310.515625 60.828125 301.828125 C 52.355469 291.042969 47.128906 278.3125 45.765625 274.554688 C 45.765625 274.527344 45.765625 274.5 45.765625 274.472656 L 45.765625 274.425781 C 43.644531 268.054688 39.179688 252.730469 39.800781 237.875 C 40.875 211.699219 49.695312 195.632812 52.027344 191.609375 C 58.242188 180.527344 66.152344 170.832031 75.761719 162.523438 C 84.226562 155.375 93.632812 149.800781 103.96875 145.8125 C 110.390625 143.144531 117.023438 141.195312 123.867188 139.960938 C 134.214844 138.152344 144.585938 138 154.980469 139.5 L 154.980469 151.867188 C 148.960938 151.964844 143.003906 152.632812 137.109375 153.871094 C 131.214844 155.109375 125.492188 156.890625 119.9375 159.222656 Z M 119.9375 159.222656 " fill-opacity="1" fill-rule="nonzero"/><g clip-path="url(#3f10a2c9a1)"><path fill="#69c9d0" d="M 243.457031 33.933594 L 203.367188 33.933594 L 203.367188 246.957031 C 203.367188 254.441406 203.367188 261.664062 200.882812 268.878906 C 196.832031 280.390625 188.222656 290.789062 176.742188 295.402344 C 159.511719 302.328125 146.042969 301.558594 129.972656 290.933594 C 125.957031 288.167969 122.496094 284.824219 119.589844 280.90625 C 133.28125 288.214844 145.535156 288.085938 160.714844 281.988281 C 172.1875 277.375 180.8125 266.980469 184.847656 255.460938 C 187.371094 248.265625 187.339844 241.023438 187.339844 233.542969 L 187.339844 20.484375 L 242.695312 20.484375 C 242.695312 20.484375 242.074219 25.777344 243.457031 33.933594 Z M 319.265625 97.503906 L 319.265625 109.359375 C 312.742188 107.804688 306.484375 105.53125 300.488281 102.53125 C 288.910156 96.75 279.890625 87.328125 278.125 85.421875 C 280.175781 86.769531 282.296875 87.992188 284.488281 89.085938 C 298.566406 96.121094 312.429688 98.21875 319.265625 97.503906 Z M 319.265625 97.503906 " fill-opacity="1" fill-rule="nonzero"/></g></svg>